<?xml version="1.0" encoding="utf-8" standalone="no"?>
<!DOCTYPE svg PUBLIC "-//W3C//DTD SVG 1.1//EN"
  "http://www.w3.org/Graphics/SVG/1.1/DTD/svg11.dtd">
<!-- Created with matplotlib (http://matplotlib.org/) -->
<svg height="345pt" version="1.1" viewBox="0 0 460 345" width="460pt" xmlns="http://www.w3.org/2000/svg" xmlns:xlink="http://www.w3.org/1999/xlink">
 <defs>
  <style type="text/css">
*{stroke-linecap:butt;stroke-linejoin:round;}
  </style>
 </defs>
 <g id="figure_1">
  <g id="patch_1">
   <path d="M 0 345.6 
L 460.8 345.6 
L 460.8 0 
L 0 0 
z
" style="fill:#ffffff;"/>
  </g>
  <g id="axes_1">
   <g id="patch_2">
    <path d="M 57.6 307.584 
L 414.72 307.584 
L 414.72 41.472 
L 57.6 41.472 
z
" style="fill:#ffffff;"/>
   </g>
   <g id="PolyCollection_1">
    <path clip-path="url(#p072ab3132a)" d="M 73.832727 124.546943 
L 73.832727 158.232163 
L 75.48072 155.638847 
L 77.128713 156.095268 
L 78.776705 155.953389 
L 80.424698 155.919309 
L 82.07269 155.260457 
L 83.720683 158.082056 
L 85.368676 164.035112 
L 87.016668 173.605448 
L 88.664661 167.223037 
L 90.312653 165.923622 
L 91.960646 171.53375 
L 93.608639 178.601356 
L 95.256631 189.853991 
L 96.904624 195.240313 
L 98.552617 212.553126 
L 100.200609 225.216452 
L 101.848602 233.533151 
L 103.496594 239.547929 
L 105.144587 244.761085 
L 106.79258 253.564419 
L 108.440572 256.452277 
L 110.088565 257.29012 
L 111.736557 258.214283 
L 113.38455 257.02387 
L 115.032543 257.077698 
L 116.680535 257.431031 
L 118.328528 259.584279 
L 119.976521 262.271287 
L 121.624513 262.731234 
L 123.272506 263.70285 
L 124.920498 264.667371 
L 126.568491 264.804616 
L 128.216484 265.042765 
L 129.864476 263.663166 
L 131.512469 263.612693 
L 133.160461 264.196498 
L 134.808454 264.38005 
L 136.456447 264.761109 
L 138.104439 264.945574 
L 139.752432 265.409336 
L 141.400425 264.288429 
L 143.048417 263.328809 
L 144.69641 261.249685 
L 146.344402 258.104448 
L 147.992395 249.773921 
L 149.640388 240.442292 
L 151.28838 229.758868 
L 152.936373 218.391375 
L 154.584365 199.157808 
L 156.232358 179.417023 
L 157.880351 164.559068 
L 159.528343 158.244067 
L 161.176336 155.756878 
L 162.824329 155.993626 
L 164.472321 156.074121 
L 166.120314 156.032445 
L 167.768306 156.151563 
L 169.416299 156.38353 
L 171.064292 156.44601 
L 172.712284 156.673104 
L 174.360277 156.861873 
L 176.008269 156.7621 
L 177.656262 156.863002 
L 179.304255 156.521699 
L 180.952247 156.275323 
L 182.60024 155.981209 
L 184.248233 155.926486 
L 185.896225 155.932531 
L 187.544218 155.228798 
L 189.19221 155.74502 
L 190.840203 158.106102 
L 192.488196 158.1499 
L 194.136188 159.672072 
L 195.784181 166.135077 
L 197.432174 179.087307 
L 199.080166 188.240366 
L 200.728159 196.706766 
L 202.376151 203.76508 
L 204.024144 208.909935 
L 205.672137 215.82078 
L 207.320129 222.989237 
L 208.968122 228.134801 
L 210.616114 232.556152 
L 212.264107 237.845956 
L 213.9121 238.101932 
L 215.560092 238.507377 
L 217.208085 237.921458 
L 218.856078 238.983972 
L 220.50407 237.222721 
L 222.152063 236.570408 
L 223.800055 241.982853 
L 225.448048 245.346575 
L 227.096041 247.087327 
L 228.744033 250.23153 
L 230.392026 255.722409 
L 232.040018 258.314266 
L 233.688011 259.045729 
L 235.336004 259.243578 
L 236.983996 259.372234 
L 238.631989 259.867545 
L 240.279982 259.922053 
L 241.927974 260.981526 
L 243.575967 262.624598 
L 245.223959 264.136636 
L 246.871952 265.311028 
L 248.519945 266.172579 
L 250.167937 267.182155 
L 251.81593 267.274501 
L 253.463922 267.015675 
L 255.111915 266.792852 
L 256.759908 267.399882 
L 258.4079 267.276567 
L 260.055893 266.052111 
L 261.703886 265.319714 
L 263.351878 264.14917 
L 264.999871 261.748821 
L 266.647863 258.743349 
L 268.295856 254.198974 
L 269.943849 250.305621 
L 271.591841 241.643218 
L 273.239834 236.052372 
L 274.887826 230.143931 
L 276.535819 222.213732 
L 278.183812 213.141477 
L 279.831804 207.103918 
L 281.479797 204.761922 
L 283.12779 189.672522 
L 284.775782 183.351281 
L 286.423775 179.230838 
L 288.071767 173.158964 
L 289.71976 161.99122 
L 291.367753 158.159677 
L 293.015745 160.588988 
L 294.663738 160.385658 
L 296.311731 158.253662 
L 297.959723 158.082489 
L 299.607716 162.104552 
L 301.255708 172.193624 
L 302.903701 158.950076 
L 304.551694 158.197145 
L 306.199686 162.471228 
L 307.847679 168.316571 
L 309.495671 158.92219 
L 311.143664 158.204602 
L 312.791657 174.833537 
L 314.439649 183.759931 
L 316.087642 183.225236 
L 317.735635 177.869799 
L 319.383627 182.301365 
L 321.03162 187.207405 
L 322.679612 180.245501 
L 324.327605 177.765693 
L 325.975598 184.855288 
L 327.62359 200.466177 
L 329.271583 206.739069 
L 330.919575 203.014725 
L 332.567568 211.41211 
L 334.215561 222.115404 
L 335.863553 227.039311 
L 337.511546 231.869769 
L 339.159539 237.977057 
L 340.807531 249.029516 
L 342.455524 254.648995 
L 344.103516 255.88975 
L 345.751509 257.797637 
L 347.399502 259.80206 
L 349.047494 263.745386 
L 350.695487 264.758947 
L 352.343479 265.541007 
L 353.991472 266.613261 
L 355.639465 267.05794 
L 357.287457 267.144345 
L 358.93545 266.839691 
L 360.583443 266.711712 
L 362.231435 266.443431 
L 363.879428 266.880078 
L 365.52742 267.441538 
L 367.175413 267.737289 
L 368.823406 268.239861 
L 370.471398 268.451171 
L 372.119391 268.410749 
L 373.767383 267.324528 
L 375.415376 266.095883 
L 377.063369 265.047633 
L 378.711361 263.554507 
L 380.359354 260.80276 
L 382.007347 255.053224 
L 383.655339 248.105718 
L 385.303332 236.737721 
L 386.951324 217.001858 
L 388.599317 200.845466 
L 390.24731 191.138169 
L 391.895302 182.902753 
L 393.543295 169.341873 
L 395.191287 162.859914 
L 396.83928 171.161544 
L 398.487273 172.750952 
L 398.487273 138.641763 
L 398.487273 138.641763 
L 396.83928 137.923963 
L 395.191287 134.262053 
L 393.543295 138.059465 
L 391.895302 141.813086 
L 390.24731 143.312607 
L 388.599317 146.005402 
L 386.951324 148.66555 
L 385.303332 148.240572 
L 383.655339 148.247692 
L 382.007347 147.389687 
L 380.359354 146.740526 
L 378.711361 146.325964 
L 377.063369 146.262948 
L 375.415376 146.27952 
L 373.767383 146.25148 
L 372.119391 145.973371 
L 370.471398 145.956975 
L 368.823406 146.007558 
L 367.175413 146.130639 
L 365.52742 146.213624 
L 363.879428 146.263728 
L 362.231435 146.261951 
L 360.583443 146.278955 
L 358.93545 146.272368 
L 357.287457 146.24971 
L 355.639465 146.257265 
L 353.991472 146.247087 
L 352.343479 146.23259 
L 350.695487 146.226672 
L 349.047494 146.16588 
L 347.399502 146.744621 
L 345.751509 146.876455 
L 344.103516 147.128823 
L 342.455524 147.255752 
L 340.807531 147.910236 
L 339.159539 147.573819 
L 337.511546 148.289883 
L 335.863553 148.373116 
L 334.215561 148.145995 
L 332.567568 147.036444 
L 330.919575 146.27583 
L 329.271583 147.081789 
L 327.62359 145.275816 
L 325.975598 141.884493 
L 324.327605 140.226543 
L 322.679612 141.139645 
L 321.03162 142.459936 
L 319.383627 141.272612 
L 317.735635 140.387679 
L 316.087642 141.728704 
L 314.439649 141.857177 
L 312.791657 138.97474 
L 311.143664 127.738889 
L 309.495671 129.86491 
L 307.847679 137.679166 
L 306.199686 133.682895 
L 304.551694 127.061925 
L 302.903701 129.77851 
L 301.255708 138.48096 
L 299.607716 133.488099 
L 297.959723 122.979265 
L 296.311731 126.530177 
L 294.663738 131.220335 
L 293.015745 131.925635 
L 291.367753 124.573241 
L 289.71976 133.582649 
L 288.071767 138.866454 
L 286.423775 140.782383 
L 284.775782 141.795201 
L 283.12779 142.937777 
L 281.479797 146.738126 
L 279.831804 147.043947 
L 278.183812 147.73861 
L 276.535819 148.179086 
L 274.887826 148.526143 
L 273.239834 147.850949 
L 271.591841 147.979796 
L 269.943849 147.991237 
L 268.295856 147.419989 
L 266.647863 146.872116 
L 264.999871 146.663411 
L 263.351878 146.242846 
L 261.703886 146.249756 
L 260.055893 146.281714 
L 258.4079 146.24473 
L 256.759908 146.222737 
L 255.111915 146.262513 
L 253.463922 146.263181 
L 251.81593 146.240486 
L 250.167937 146.235224 
L 248.519945 146.244729 
L 246.871952 146.225064 
L 245.223959 146.192645 
L 243.575967 146.3882 
L 241.927974 146.648027 
L 240.279982 146.76163 
L 238.631989 146.772186 
L 236.983996 146.786455 
L 235.336004 146.817239 
L 233.688011 146.816599 
L 232.040018 146.853519 
L 230.392026 147.095237 
L 228.744033 147.796772 
L 227.096041 147.87214 
L 225.448048 147.401705 
L 223.800055 147.641644 
L 222.152063 147.74797 
L 220.50407 147.940081 
L 218.856078 148.014798 
L 217.208085 147.837892 
L 215.560092 147.932928 
L 213.9121 147.987686 
L 212.264107 147.764266 
L 210.616114 148.192063 
L 208.968122 148.28785 
L 207.320129 148.046088 
L 205.672137 148.006387 
L 204.024144 147.03166 
L 202.376151 146.30586 
L 200.728159 144.294778 
L 199.080166 142.391738 
L 197.432174 140.513306 
L 195.784181 136.330998 
L 194.136188 130.454229 
L 192.488196 125.030019 
L 190.840203 123.266313 
L 189.19221 120.864581 
L 187.544218 108.514234 
L 185.896225 92.705768 
L 184.248233 89.631023 
L 182.60024 81.376708 
L 180.952247 69.477567 
L 179.304255 61.597854 
L 177.656262 53.568 
L 176.008269 58.699113 
L 174.360277 56.779775 
L 172.712284 60.370775 
L 171.064292 66.116411 
L 169.416299 73.172019 
L 167.768306 83.286066 
L 166.120314 88.417994 
L 164.472321 95.32156 
L 162.824329 99.906674 
L 161.176336 115.436753 
L 159.528343 124.580865 
L 157.880351 135.736049 
L 156.232358 141.042504 
L 154.584365 145.608195 
L 152.936373 148.526867 
L 151.28838 148.5877 
L 149.640388 148.071668 
L 147.992395 148.134813 
L 146.344402 146.920731 
L 144.69641 146.703132 
L 143.048417 146.33592 
L 141.400425 146.248691 
L 139.752432 146.245356 
L 138.104439 146.230291 
L 136.456447 146.232892 
L 134.808454 146.213076 
L 133.160461 146.228157 
L 131.512469 146.235348 
L 129.864476 146.296676 
L 128.216484 146.244464 
L 126.568491 146.224468 
L 124.920498 146.231079 
L 123.272506 146.180839 
L 121.624513 146.409938 
L 119.976521 146.439483 
L 118.328528 146.75831 
L 116.680535 146.901516 
L 115.032543 146.963228 
L 113.38455 146.990347 
L 111.736557 146.873954 
L 110.088565 146.922689 
L 108.440572 147.029936 
L 106.79258 147.382573 
L 105.144587 147.362652 
L 103.496594 147.908839 
L 101.848602 148.076973 
L 100.200609 147.91602 
L 98.552617 147.070334 
L 96.904624 143.775381 
L 95.256631 142.62223 
L 93.608639 140.308055 
L 91.960646 138.120212 
L 90.312653 136.238664 
L 88.664661 137.367395 
L 87.016668 138.912213 
L 85.368676 135.243709 
L 83.720683 124.630816 
L 82.07269 108.021395 
L 80.424698 100.24427 
L 78.776705 96.365317 
L 77.128713 95.279653 
L 75.48072 107.372786 
L 73.832727 124.546943 
z
" style="fill:#008000;fill-opacity:0.4;"/>
   </g>
   <g id="matplotlib.axis_1">
    <g id="xtick_1">
     <g id="line2d_1">
      <defs>
       <path d="M 0 0 
L 0 3.5 
" id="m6323c5529c" style="stroke:#000000;stroke-width:0.8;"/>
      </defs>
      <g>
       <use style="stroke:#000000;stroke-width:0.8;" x="73.832727" xlink:href="#m6323c5529c" y="307.584"/>
      </g>
     </g>
     <g id="text_1">
      <!-- 0.0 -->
      <defs>
       <path d="M 31.78125 66.40625 
Q 24.171875 66.40625 20.328125 58.90625 
Q 16.5 51.421875 16.5 36.375 
Q 16.5 21.390625 20.328125 13.890625 
Q 24.171875 6.390625 31.78125 6.390625 
Q 39.453125 6.390625 43.28125 13.890625 
Q 47.125 21.390625 47.125 36.375 
Q 47.125 51.421875 43.28125 58.90625 
Q 39.453125 66.40625 31.78125 66.40625 
z
M 31.78125 74.21875 
Q 44.046875 74.21875 50.515625 64.515625 
Q 56.984375 54.828125 56.984375 36.375 
Q 56.984375 17.96875 50.515625 8.265625 
Q 44.046875 -1.421875 31.78125 -1.421875 
Q 19.53125 -1.421875 13.0625 8.265625 
Q 6.59375 17.96875 6.59375 36.375 
Q 6.59375 54.828125 13.0625 64.515625 
Q 19.53125 74.21875 31.78125 74.21875 
z
" id="DejaVuSans-30"/>
       <path d="M 10.6875 12.40625 
L 21 12.40625 
L 21 0 
L 10.6875 0 
z
" id="DejaVuSans-2e"/>
      </defs>
      <g transform="translate(65.881165 322.182437)scale(0.1 -0.1)">
       <use xlink:href="#DejaVuSans-30"/>
       <use x="63.623047" xlink:href="#DejaVuSans-2e"/>
       <use x="95.410156" xlink:href="#DejaVuSans-30"/>
      </g>
     </g>
    </g>
    <g id="xtick_2">
     <g id="line2d_2">
      <g>
       <use style="stroke:#000000;stroke-width:0.8;" x="138.763636" xlink:href="#m6323c5529c" y="307.584"/>
      </g>
     </g>
     <g id="text_2">
      <!-- 0.2 -->
      <defs>
       <path d="M 19.1875 8.296875 
L 53.609375 8.296875 
L 53.609375 0 
L 7.328125 0 
L 7.328125 8.296875 
Q 12.9375 14.109375 22.625 23.890625 
Q 32.328125 33.6875 34.8125 36.53125 
Q 39.546875 41.84375 41.421875 45.53125 
Q 43.3125 49.21875 43.3125 52.78125 
Q 43.3125 58.59375 39.234375 62.25 
Q 35.15625 65.921875 28.609375 65.921875 
Q 23.96875 65.921875 18.8125 64.3125 
Q 13.671875 62.703125 7.8125 59.421875 
L 7.8125 69.390625 
Q 13.765625 71.78125 18.9375 73 
Q 24.125 74.21875 28.421875 74.21875 
Q 39.75 74.21875 46.484375 68.546875 
Q 53.21875 62.890625 53.21875 53.421875 
Q 53.21875 48.921875 51.53125 44.890625 
Q 49.859375 40.875 45.40625 35.40625 
Q 44.1875 33.984375 37.640625 27.21875 
Q 31.109375 20.453125 19.1875 8.296875 
z
" id="DejaVuSans-32"/>
      </defs>
      <g transform="translate(130.812074 322.182437)scale(0.1 -0.1)">
       <use xlink:href="#DejaVuSans-30"/>
       <use x="63.623047" xlink:href="#DejaVuSans-2e"/>
       <use x="95.410156" xlink:href="#DejaVuSans-32"/>
      </g>
     </g>
    </g>
    <g id="xtick_3">
     <g id="line2d_3">
      <g>
       <use style="stroke:#000000;stroke-width:0.8;" x="203.694545" xlink:href="#m6323c5529c" y="307.584"/>
      </g>
     </g>
     <g id="text_3">
      <!-- 0.4 -->
      <defs>
       <path d="M 37.796875 64.3125 
L 12.890625 25.390625 
L 37.796875 25.390625 
z
M 35.203125 72.90625 
L 47.609375 72.90625 
L 47.609375 25.390625 
L 58.015625 25.390625 
L 58.015625 17.1875 
L 47.609375 17.1875 
L 47.609375 0 
L 37.796875 0 
L 37.796875 17.1875 
L 4.890625 17.1875 
L 4.890625 26.703125 
z
" id="DejaVuSans-34"/>
      </defs>
      <g transform="translate(195.742983 322.182437)scale(0.1 -0.1)">
       <use xlink:href="#DejaVuSans-30"/>
       <use x="63.623047" xlink:href="#DejaVuSans-2e"/>
       <use x="95.410156" xlink:href="#DejaVuSans-34"/>
      </g>
     </g>
    </g>
    <g id="xtick_4">
     <g id="line2d_4">
      <g>
       <use style="stroke:#000000;stroke-width:0.8;" x="268.625455" xlink:href="#m6323c5529c" y="307.584"/>
      </g>
     </g>
     <g id="text_4">
      <!-- 0.6 -->
      <defs>
       <path d="M 33.015625 40.375 
Q 26.375 40.375 22.484375 35.828125 
Q 18.609375 31.296875 18.609375 23.390625 
Q 18.609375 15.53125 22.484375 10.953125 
Q 26.375 6.390625 33.015625 6.390625 
Q 39.65625 6.390625 43.53125 10.953125 
Q 47.40625 15.53125 47.40625 23.390625 
Q 47.40625 31.296875 43.53125 35.828125 
Q 39.65625 40.375 33.015625 40.375 
z
M 52.59375 71.296875 
L 52.59375 62.3125 
Q 48.875 64.0625 45.09375 64.984375 
Q 41.3125 65.921875 37.59375 65.921875 
Q 27.828125 65.921875 22.671875 59.328125 
Q 17.53125 52.734375 16.796875 39.40625 
Q 19.671875 43.65625 24.015625 45.921875 
Q 28.375 48.1875 33.59375 48.1875 
Q 44.578125 48.1875 50.953125 41.515625 
Q 57.328125 34.859375 57.328125 23.390625 
Q 57.328125 12.15625 50.6875 5.359375 
Q 44.046875 -1.421875 33.015625 -1.421875 
Q 20.359375 -1.421875 13.671875 8.265625 
Q 6.984375 17.96875 6.984375 36.375 
Q 6.984375 53.65625 15.1875 63.9375 
Q 23.390625 74.21875 37.203125 74.21875 
Q 40.921875 74.21875 44.703125 73.484375 
Q 48.484375 72.75 52.59375 71.296875 
z
" id="DejaVuSans-36"/>
      </defs>
      <g transform="translate(260.673892 322.182437)scale(0.1 -0.1)">
       <use xlink:href="#DejaVuSans-30"/>
       <use x="63.623047" xlink:href="#DejaVuSans-2e"/>
       <use x="95.410156" xlink:href="#DejaVuSans-36"/>
      </g>
     </g>
    </g>
    <g id="xtick_5">
     <g id="line2d_5">
      <g>
       <use style="stroke:#000000;stroke-width:0.8;" x="333.556364" xlink:href="#m6323c5529c" y="307.584"/>
      </g>
     </g>
     <g id="text_5">
      <!-- 0.8 -->
      <defs>
       <path d="M 31.78125 34.625 
Q 24.75 34.625 20.71875 30.859375 
Q 16.703125 27.09375 16.703125 20.515625 
Q 16.703125 13.921875 20.71875 10.15625 
Q 24.75 6.390625 31.78125 6.390625 
Q 38.8125 6.390625 42.859375 10.171875 
Q 46.921875 13.96875 46.921875 20.515625 
Q 46.921875 27.09375 42.890625 30.859375 
Q 38.875 34.625 31.78125 34.625 
z
M 21.921875 38.8125 
Q 15.578125 40.375 12.03125 44.71875 
Q 8.5 49.078125 8.5 55.328125 
Q 8.5 64.0625 14.71875 69.140625 
Q 20.953125 74.21875 31.78125 74.21875 
Q 42.671875 74.21875 48.875 69.140625 
Q 55.078125 64.0625 55.078125 55.328125 
Q 55.078125 49.078125 51.53125 44.71875 
Q 48 40.375 41.703125 38.8125 
Q 48.828125 37.15625 52.796875 32.3125 
Q 56.78125 27.484375 56.78125 20.515625 
Q 56.78125 9.90625 50.3125 4.234375 
Q 43.84375 -1.421875 31.78125 -1.421875 
Q 19.734375 -1.421875 13.25 4.234375 
Q 6.78125 9.90625 6.78125 20.515625 
Q 6.78125 27.484375 10.78125 32.3125 
Q 14.796875 37.15625 21.921875 38.8125 
z
M 18.3125 54.390625 
Q 18.3125 48.734375 21.84375 45.5625 
Q 25.390625 42.390625 31.78125 42.390625 
Q 38.140625 42.390625 41.71875 45.5625 
Q 45.3125 48.734375 45.3125 54.390625 
Q 45.3125 60.0625 41.71875 63.234375 
Q 38.140625 66.40625 31.78125 66.40625 
Q 25.390625 66.40625 21.84375 63.234375 
Q 18.3125 60.0625 18.3125 54.390625 
z
" id="DejaVuSans-38"/>
      </defs>
      <g transform="translate(325.604801 322.182437)scale(0.1 -0.1)">
       <use xlink:href="#DejaVuSans-30"/>
       <use x="63.623047" xlink:href="#DejaVuSans-2e"/>
       <use x="95.410156" xlink:href="#DejaVuSans-38"/>
      </g>
     </g>
    </g>
    <g id="xtick_6">
     <g id="line2d_6">
      <g>
       <use style="stroke:#000000;stroke-width:0.8;" x="398.487273" xlink:href="#m6323c5529c" y="307.584"/>
      </g>
     </g>
     <g id="text_6">
      <!-- 1.0 -->
      <defs>
       <path d="M 12.40625 8.296875 
L 28.515625 8.296875 
L 28.515625 63.921875 
L 10.984375 60.40625 
L 10.984375 69.390625 
L 28.421875 72.90625 
L 38.28125 72.90625 
L 38.28125 8.296875 
L 54.390625 8.296875 
L 54.390625 0 
L 12.40625 0 
z
" id="DejaVuSans-31"/>
      </defs>
      <g transform="translate(390.53571 322.182437)scale(0.1 -0.1)">
       <use xlink:href="#DejaVuSans-31"/>
       <use x="63.623047" xlink:href="#DejaVuSans-2e"/>
       <use x="95.410156" xlink:href="#DejaVuSans-30"/>
      </g>
     </g>
    </g>
   </g>
   <g id="matplotlib.axis_2">
    <g id="ytick_1">
     <g id="line2d_7">
      <defs>
       <path d="M 0 0 
L -3.5 0 
" id="mbbb591bcc2" style="stroke:#000000;stroke-width:0.8;"/>
      </defs>
      <g>
       <use style="stroke:#000000;stroke-width:0.8;" x="57.6" xlink:href="#mbbb591bcc2" y="299.395307"/>
      </g>
     </g>
     <g id="text_7">
      <!-- 0.0 -->
      <g transform="translate(34.696875 303.194525)scale(0.1 -0.1)">
       <use xlink:href="#DejaVuSans-30"/>
       <use x="63.623047" xlink:href="#DejaVuSans-2e"/>
       <use x="95.410156" xlink:href="#DejaVuSans-30"/>
      </g>
     </g>
    </g>
    <g id="ytick_2">
     <g id="line2d_8">
      <g>
       <use style="stroke:#000000;stroke-width:0.8;" x="57.6" xlink:href="#mbbb591bcc2" y="260.869309"/>
      </g>
     </g>
     <g id="text_8">
      <!-- 0.1 -->
      <g transform="translate(34.696875 264.668528)scale(0.1 -0.1)">
       <use xlink:href="#DejaVuSans-30"/>
       <use x="63.623047" xlink:href="#DejaVuSans-2e"/>
       <use x="95.410156" xlink:href="#DejaVuSans-31"/>
      </g>
     </g>
    </g>
    <g id="ytick_3">
     <g id="line2d_9">
      <g>
       <use style="stroke:#000000;stroke-width:0.8;" x="57.6" xlink:href="#mbbb591bcc2" y="222.343312"/>
      </g>
     </g>
     <g id="text_9">
      <!-- 0.2 -->
      <g transform="translate(34.696875 226.14253)scale(0.1 -0.1)">
       <use xlink:href="#DejaVuSans-30"/>
       <use x="63.623047" xlink:href="#DejaVuSans-2e"/>
       <use x="95.410156" xlink:href="#DejaVuSans-32"/>
      </g>
     </g>
    </g>
    <g id="ytick_4">
     <g id="line2d_10">
      <g>
       <use style="stroke:#000000;stroke-width:0.8;" x="57.6" xlink:href="#mbbb591bcc2" y="183.817314"/>
      </g>
     </g>
     <g id="text_10">
      <!-- 0.3 -->
      <defs>
       <path d="M 40.578125 39.3125 
Q 47.65625 37.796875 51.625 33 
Q 55.609375 28.21875 55.609375 21.1875 
Q 55.609375 10.40625 48.1875 4.484375 
Q 40.765625 -1.421875 27.09375 -1.421875 
Q 22.515625 -1.421875 17.65625 -0.515625 
Q 12.796875 0.390625 7.625 2.203125 
L 7.625 11.71875 
Q 11.71875 9.328125 16.59375 8.109375 
Q 21.484375 6.890625 26.8125 6.890625 
Q 36.078125 6.890625 40.9375 10.546875 
Q 45.796875 14.203125 45.796875 21.1875 
Q 45.796875 27.640625 41.28125 31.265625 
Q 36.765625 34.90625 28.71875 34.90625 
L 20.21875 34.90625 
L 20.21875 43.015625 
L 29.109375 43.015625 
Q 36.375 43.015625 40.234375 45.921875 
Q 44.09375 48.828125 44.09375 54.296875 
Q 44.09375 59.90625 40.109375 62.90625 
Q 36.140625 65.921875 28.71875 65.921875 
Q 24.65625 65.921875 20.015625 65.03125 
Q 15.375 64.15625 9.8125 62.3125 
L 9.8125 71.09375 
Q 15.4375 72.65625 20.34375 73.4375 
Q 25.25 74.21875 29.59375 74.21875 
Q 40.828125 74.21875 47.359375 69.109375 
Q 53.90625 64.015625 53.90625 55.328125 
Q 53.90625 49.265625 50.4375 45.09375 
Q 46.96875 40.921875 40.578125 39.3125 
z
" id="DejaVuSans-33"/>
      </defs>
      <g transform="translate(34.696875 187.616533)scale(0.1 -0.1)">
       <use xlink:href="#DejaVuSans-30"/>
       <use x="63.623047" xlink:href="#DejaVuSans-2e"/>
       <use x="95.410156" xlink:href="#DejaVuSans-33"/>
      </g>
     </g>
    </g>
    <g id="ytick_5">
     <g id="line2d_11">
      <g>
       <use style="stroke:#000000;stroke-width:0.8;" x="57.6" xlink:href="#mbbb591bcc2" y="145.291316"/>
      </g>
     </g>
     <g id="text_11">
      <!-- 0.4 -->
      <g transform="translate(34.696875 149.090535)scale(0.1 -0.1)">
       <use xlink:href="#DejaVuSans-30"/>
       <use x="63.623047" xlink:href="#DejaVuSans-2e"/>
       <use x="95.410156" xlink:href="#DejaVuSans-34"/>
      </g>
     </g>
    </g>
    <g id="ytick_6">
     <g id="line2d_12">
      <g>
       <use style="stroke:#000000;stroke-width:0.8;" x="57.6" xlink:href="#mbbb591bcc2" y="106.765319"/>
      </g>
     </g>
     <g id="text_12">
      <!-- 0.5 -->
      <defs>
       <path d="M 10.796875 72.90625 
L 49.515625 72.90625 
L 49.515625 64.59375 
L 19.828125 64.59375 
L 19.828125 46.734375 
Q 21.96875 47.46875 24.109375 47.828125 
Q 26.265625 48.1875 28.421875 48.1875 
Q 40.625 48.1875 47.75 41.5 
Q 54.890625 34.8125 54.890625 23.390625 
Q 54.890625 11.625 47.5625 5.09375 
Q 40.234375 -1.421875 26.90625 -1.421875 
Q 22.3125 -1.421875 17.546875 -0.640625 
Q 12.796875 0.140625 7.71875 1.703125 
L 7.71875 11.625 
Q 12.109375 9.234375 16.796875 8.0625 
Q 21.484375 6.890625 26.703125 6.890625 
Q 35.15625 6.890625 40.078125 11.328125 
Q 45.015625 15.765625 45.015625 23.390625 
Q 45.015625 31 40.078125 35.4375 
Q 35.15625 39.890625 26.703125 39.890625 
Q 22.75 39.890625 18.8125 39.015625 
Q 14.890625 38.140625 10.796875 36.28125 
z
" id="DejaVuSans-35"/>
      </defs>
      <g transform="translate(34.696875 110.564538)scale(0.1 -0.1)">
       <use xlink:href="#DejaVuSans-30"/>
       <use x="63.623047" xlink:href="#DejaVuSans-2e"/>
       <use x="95.410156" xlink:href="#DejaVuSans-35"/>
      </g>
     </g>
    </g>
    <g id="ytick_7">
     <g id="line2d_13">
      <g>
       <use style="stroke:#000000;stroke-width:0.8;" x="57.6" xlink:href="#mbbb591bcc2" y="68.239321"/>
      </g>
     </g>
     <g id="text_13">
      <!-- 0.6 -->
      <g transform="translate(34.696875 72.03854)scale(0.1 -0.1)">
       <use xlink:href="#DejaVuSans-30"/>
       <use x="63.623047" xlink:href="#DejaVuSans-2e"/>
       <use x="95.410156" xlink:href="#DejaVuSans-36"/>
      </g>
     </g>
    </g>
   </g>
   <g id="line2d_14">
    <path clip-path="url(#p072ab3132a)" d="M 73.832727 109.239844 
L 75.48072 105.072101 
L 77.128713 112.626279 
L 78.776705 113.407586 
L 80.424698 130.860248 
L 82.07269 146.229039 
L 83.720683 158.211395 
L 85.368676 155.606652 
L 87.016668 149.87591 
L 88.664661 156.38796 
L 90.312653 161.337394 
L 91.960646 171.75675 
L 93.608639 176.445364 
L 95.256631 192.856284 
L 96.904624 210.569381 
L 100.200609 232.189786 
L 101.848602 238.701835 
L 103.496594 255.633626 
L 105.144587 263.18765 
L 106.79258 265.532034 
L 108.440572 268.397366 
L 110.088565 266.313495 
L 111.736557 265.532034 
L 113.38455 265.532034 
L 115.032543 269.699814 
L 116.680535 276.993441 
L 118.328528 279.077351 
L 119.976521 280.37976 
L 121.624513 284.287067 
L 123.272506 284.287067 
L 124.920498 285.589515 
L 126.568491 282.46367 
L 128.216484 280.900747 
L 129.864476 283.245131 
L 131.512469 282.984657 
L 133.160461 284.547541 
L 134.808454 284.808054 
L 136.456447 286.370977 
L 138.104439 284.287067 
L 139.752432 281.161222 
L 141.400425 276.993441 
L 143.048417 271.262737 
L 144.69641 256.414933 
L 146.344402 238.4414 
L 147.992395 223.333044 
L 149.640388 209.266817 
L 152.936373 169.152008 
L 154.584365 152.220217 
L 156.232358 137.893554 
L 157.880351 126.692506 
L 159.528343 114.449714 
L 161.176336 108.458536 
L 162.824329 103.248666 
L 164.472321 98.560052 
L 167.768306 84.233389 
L 171.064292 74.59534 
L 172.712284 77.200083 
L 174.360277 73.292776 
L 176.008269 74.855776 
L 177.656262 84.233389 
L 179.304255 92.568874 
L 180.952247 102.467359 
L 182.60024 102.98823 
L 184.248233 113.668407 
L 185.896225 129.55807 
L 187.544218 132.162812 
L 189.19221 133.986248 
L 190.840203 141.27999 
L 192.488196 147.792039 
L 194.136188 162.639573 
L 197.432174 178.008364 
L 199.080166 187.385977 
L 200.728159 191.032848 
L 202.376151 200.410461 
L 204.024144 207.443382 
L 205.672137 216.039688 
L 207.320129 220.988737 
L 208.968122 230.105915 
L 210.616114 232.450222 
L 213.9121 230.887222 
L 215.560092 232.710658 
L 217.208085 232.450222 
L 218.856078 227.500787 
L 222.152063 242.348706 
L 223.800055 246.516449 
L 225.448048 248.860756 
L 227.096041 260.061804 
L 228.744033 267.615905 
L 230.392026 269.699814 
L 232.040018 271.002263 
L 233.688011 269.960289 
L 235.336004 272.044198 
L 236.983996 271.783724 
L 238.631989 273.607121 
L 240.279982 278.035376 
L 243.575967 285.329003 
L 245.223959 287.933899 
L 246.871952 291.059745 
L 248.519945 292.10168 
L 250.167937 291.320219 
L 251.81593 290.017771 
L 253.463922 292.10168 
L 255.111915 292.362155 
L 256.759908 289.236309 
L 258.4079 286.370977 
L 260.055893 283.76608 
L 261.703886 278.816838 
L 263.351878 271.783724 
L 264.999871 261.624727 
L 266.647863 255.37319 
L 268.295856 240.785707 
L 269.943849 230.105915 
L 271.591841 222.291301 
L 273.239834 212.132381 
L 274.887826 201.191768 
L 276.535819 192.335412 
L 278.183812 191.032848 
L 279.831804 178.529621 
L 281.479797 168.10988 
L 283.12779 165.765573 
L 284.775782 160.03483 
L 286.423775 151.959781 
L 288.071767 134.246683 
L 289.71976 142.061297 
L 291.367753 144.405604 
L 293.015745 139.195733 
L 294.663738 132.162812 
L 296.311731 139.71699 
L 297.959723 160.03483 
L 299.607716 144.145168 
L 301.255708 136.851426 
L 302.903701 142.842604 
L 304.551694 156.127524 
L 306.199686 144.145168 
L 307.847679 135.809683 
L 309.495671 154.043653 
L 311.143664 168.370315 
L 312.791657 167.589008 
L 314.439649 164.984265 
L 316.087642 164.202573 
L 317.735635 172.017186 
L 319.383627 167.849444 
L 321.03162 161.076959 
L 322.679612 167.589008 
L 324.327605 178.529621 
L 325.975598 193.377155 
L 327.62359 186.60467 
L 329.271583 193.377155 
L 330.919575 207.182946 
L 335.863553 227.240351 
L 337.511546 245.735141 
L 339.159539 258.498804 
L 340.807531 262.927137 
L 342.455524 266.052982 
L 344.103516 270.220802 
L 345.751509 279.858812 
L 347.399502 284.287067 
L 349.047494 286.110464 
L 350.695487 288.975835 
L 352.343479 291.320219 
L 353.991472 291.580693 
L 355.639465 290.538758 
L 357.287457 290.538758 
L 358.93545 289.236309 
L 360.583443 290.278283 
L 362.231435 292.10168 
L 363.879428 292.883142 
L 365.52742 294.706539 
L 367.175413 295.488 
L 368.823406 295.488 
L 370.471398 293.143616 
L 372.119391 289.236309 
L 373.767383 286.370977 
L 375.415376 282.46367 
L 377.063369 276.472454 
L 378.711361 265.792508 
L 382.007347 236.097093 
L 383.655339 208.745946 
L 385.303332 189.209413 
L 386.951324 177.227057 
L 388.599317 169.672879 
L 390.24731 158.993087 
L 391.895302 146.749911 
L 393.543295 154.564524 
L 395.191287 159.513959 
L 396.83928 152.741089 
L 398.487273 142.582168 
L 398.487273 142.582168 
" style="fill:none;stroke:#1f77b4;stroke-linecap:square;stroke-width:1.5;"/>
   </g>
   <g id="line2d_15">
    <path clip-path="url(#p072ab3132a)" d="M 73.832727 138.937646 
L 75.48072 126.200483 
L 77.128713 117.837298 
L 78.776705 117.949586 
L 80.424698 120.970194 
L 82.07269 125.970434 
L 83.720683 139.632149 
L 85.368676 150.685455 
L 87.016668 158.283311 
L 88.664661 153.973852 
L 90.312653 152.533812 
L 93.608639 161.518854 
L 95.256631 169.030498 
L 96.904624 172.804927 
L 98.552617 184.891083 
L 100.200609 194.094802 
L 101.848602 200.189398 
L 103.496594 204.850551 
L 105.144587 208.782567 
L 106.79258 215.588159 
L 108.440572 217.982426 
L 111.736557 219.491588 
L 113.38455 218.594073 
L 115.032543 218.560475 
L 116.680535 218.774823 
L 118.328528 220.541195 
L 119.976521 222.867077 
L 121.624513 223.296769 
L 124.920498 224.989905 
L 126.568491 225.097979 
L 128.216484 225.329797 
L 129.864476 224.147736 
L 131.512469 224.046913 
L 133.160461 224.584433 
L 134.808454 224.719665 
L 136.456447 225.072539 
L 138.104439 225.226733 
L 139.752432 225.645722 
L 143.048417 223.83416 
L 144.69641 222.12945 
L 146.344402 219.654009 
L 147.992395 213.050415 
L 149.640388 205.703974 
L 152.936373 189.593943 
L 156.232358 162.45695 
L 157.880351 151.376749 
L 159.528343 138.85303 
L 161.176336 131.287895 
L 162.824329 121.011697 
L 164.472321 117.820427 
L 166.120314 113.236079 
L 167.768306 109.497887 
L 169.416299 103.140718 
L 171.064292 98.460235 
L 172.712284 94.565698 
L 174.360277 91.984716 
L 176.008269 93.37176 
L 177.656262 89.851929 
L 180.952247 100.241949 
L 182.60024 107.976909 
L 184.248233 113.931497 
L 185.896225 115.668916 
L 187.544218 126.281285 
L 189.19221 135.80366 
L 190.840203 138.181972 
L 192.488196 139.929908 
L 194.136188 145.486035 
L 195.784181 152.740946 
L 197.432174 161.933152 
L 200.728159 173.791732 
L 202.376151 178.929699 
L 204.024144 182.38234 
L 207.320129 192.455287 
L 208.968122 196.271503 
L 210.616114 199.560006 
L 212.264107 203.599969 
L 213.9121 203.941236 
L 215.560092 204.137254 
L 217.208085 203.694614 
L 218.856078 204.531336 
L 220.50407 203.238205 
L 222.152063 202.596356 
L 223.800055 206.666936 
L 225.448048 209.374425 
L 227.096041 210.75759 
L 228.744033 212.961605 
L 230.392026 217.273951 
L 232.040018 219.500084 
L 233.688011 220.130779 
L 235.336004 220.351017 
L 236.983996 220.388861 
L 238.631989 220.844599 
L 240.279982 220.874136 
L 241.927974 221.751697 
L 245.223959 224.484019 
L 246.871952 225.53288 
L 248.519945 226.303427 
L 250.167937 227.212806 
L 251.81593 227.321001 
L 255.111915 226.86702 
L 256.759908 227.421562 
L 258.4079 227.331175 
L 260.055893 226.25098 
L 261.703886 225.574846 
L 263.351878 224.568869 
L 264.999871 222.594886 
L 266.647863 220.094159 
L 268.295856 216.446578 
L 269.943849 213.398631 
L 271.591841 206.650853 
L 274.887826 197.981357 
L 276.535819 192.189863 
L 278.183812 185.647249 
L 279.831804 181.279348 
L 281.479797 179.726311 
L 283.12779 169.481736 
L 284.775782 164.845886 
L 286.423775 162.237188 
L 288.071767 158.167382 
L 289.71976 149.24713 
L 291.367753 139.44115 
L 293.015745 147.166929 
L 294.663738 146.078482 
L 296.311731 141.183779 
L 297.959723 137.882555 
L 299.607716 148.72282 
L 301.255708 157.609991 
L 302.903701 143.910303 
L 304.551694 141.902231 
L 306.199686 149.028993 
L 307.847679 154.843434 
L 309.495671 144.107446 
L 311.143664 142.656954 
L 312.791657 158.67141 
L 314.439649 165.123237 
L 316.087642 164.735878 
L 317.735635 161.297843 
L 319.383627 163.973841 
L 321.03162 167.476808 
L 322.679612 162.951298 
L 324.327605 160.963512 
L 325.975598 165.711897 
L 327.62359 176.358298 
L 329.271583 181.090359 
L 330.919575 178.415845 
L 332.567568 184.165713 
L 334.215561 191.823869 
L 337.511546 199.061325 
L 339.159539 203.463908 
L 340.807531 211.9815 
L 342.455524 216.490405 
L 344.103516 217.620852 
L 345.751509 219.052824 
L 347.399502 220.726292 
L 349.047494 224.114694 
L 350.695487 225.062006 
L 352.343479 225.741166 
L 353.991472 226.689126 
L 355.639465 227.121904 
L 357.287457 227.199635 
L 358.93545 226.921643 
L 360.583443 226.819419 
L 362.231435 226.562371 
L 363.879428 226.945326 
L 365.52742 227.454992 
L 367.175413 227.718426 
L 368.823406 228.183885 
L 370.471398 228.376759 
L 372.119391 228.344314 
L 373.767383 227.395121 
L 375.415376 226.28577 
L 377.063369 225.361038 
L 378.711361 224.073453 
L 380.359354 221.791809 
L 382.007347 217.209697 
L 383.655339 211.666773 
L 385.303332 203.101504 
L 386.951324 188.704833 
L 388.599317 177.154602 
L 390.24731 170.29258 
L 391.895302 164.640291 
L 393.543295 155.511903 
L 395.191287 149.745222 
L 396.83928 156.472814 
L 398.487273 157.869569 
L 398.487273 157.869569 
" style="fill:none;stroke:#ff7f0e;stroke-linecap:square;stroke-width:1.5;"/>
   </g>
   <g id="line2d_16">
    <path clip-path="url(#p072ab3132a)" d="M 73.832727 158.232163 
L 75.48072 155.638847 
L 77.128713 156.095268 
L 80.424698 155.919309 
L 82.07269 155.260457 
L 83.720683 158.082056 
L 85.368676 164.035112 
L 87.016668 173.605448 
L 88.664661 167.223037 
L 90.312653 165.923622 
L 91.960646 171.53375 
L 93.608639 178.601356 
L 95.256631 189.853991 
L 96.904624 195.240313 
L 98.552617 212.553126 
L 100.200609 225.216452 
L 101.848602 233.533151 
L 103.496594 239.547929 
L 105.144587 244.761085 
L 106.79258 253.564419 
L 108.440572 256.452277 
L 111.736557 258.214283 
L 113.38455 257.02387 
L 115.032543 257.077698 
L 116.680535 257.431031 
L 118.328528 259.584279 
L 119.976521 262.271287 
L 121.624513 262.731234 
L 124.920498 264.667371 
L 128.216484 265.042765 
L 129.864476 263.663166 
L 131.512469 263.612693 
L 133.160461 264.196498 
L 134.808454 264.38005 
L 136.456447 264.761109 
L 138.104439 264.945574 
L 139.752432 265.409336 
L 141.400425 264.288429 
L 143.048417 263.328809 
L 144.69641 261.249685 
L 146.344402 258.104448 
L 147.992395 249.773921 
L 149.640388 240.442292 
L 152.936373 218.391375 
L 156.232358 179.417023 
L 157.880351 164.559068 
L 159.528343 158.244067 
L 161.176336 155.756878 
L 162.824329 155.993626 
L 164.472321 156.074121 
L 166.120314 156.032445 
L 167.768306 156.151563 
L 169.416299 156.38353 
L 171.064292 156.44601 
L 174.360277 156.861873 
L 176.008269 156.7621 
L 177.656262 156.863002 
L 180.952247 156.275323 
L 182.60024 155.981209 
L 185.896225 155.932531 
L 187.544218 155.228798 
L 189.19221 155.74502 
L 190.840203 158.106102 
L 192.488196 158.1499 
L 194.136188 159.672072 
L 195.784181 166.135077 
L 197.432174 179.087307 
L 199.080166 188.240366 
L 200.728159 196.706766 
L 202.376151 203.76508 
L 204.024144 208.909935 
L 207.320129 222.989237 
L 208.968122 228.134801 
L 210.616114 232.556152 
L 212.264107 237.845956 
L 213.9121 238.101932 
L 215.560092 238.507377 
L 217.208085 237.921458 
L 218.856078 238.983972 
L 220.50407 237.222721 
L 222.152063 236.570408 
L 223.800055 241.982853 
L 225.448048 245.346575 
L 227.096041 247.087327 
L 228.744033 250.23153 
L 230.392026 255.722409 
L 232.040018 258.314266 
L 233.688011 259.045729 
L 236.983996 259.372234 
L 238.631989 259.867545 
L 240.279982 259.922053 
L 241.927974 260.981526 
L 245.223959 264.136636 
L 246.871952 265.311028 
L 248.519945 266.172579 
L 250.167937 267.182155 
L 251.81593 267.274501 
L 255.111915 266.792852 
L 256.759908 267.399882 
L 258.4079 267.276567 
L 260.055893 266.052111 
L 261.703886 265.319714 
L 263.351878 264.14917 
L 264.999871 261.748821 
L 266.647863 258.743349 
L 268.295856 254.198974 
L 269.943849 250.305621 
L 271.591841 241.643218 
L 274.887826 230.143931 
L 276.535819 222.213732 
L 278.183812 213.141477 
L 279.831804 207.103918 
L 281.479797 204.761922 
L 283.12779 189.672522 
L 284.775782 183.351281 
L 286.423775 179.230838 
L 288.071767 173.158964 
L 289.71976 161.99122 
L 291.367753 158.159677 
L 293.015745 160.588988 
L 294.663738 160.385658 
L 296.311731 158.253662 
L 297.959723 158.082489 
L 299.607716 162.104552 
L 301.255708 172.193624 
L 302.903701 158.950076 
L 304.551694 158.197145 
L 306.199686 162.471228 
L 307.847679 168.316571 
L 309.495671 158.92219 
L 311.143664 158.204602 
L 312.791657 174.833537 
L 314.439649 183.759931 
L 316.087642 183.225236 
L 317.735635 177.869799 
L 319.383627 182.301365 
L 321.03162 187.207405 
L 322.679612 180.245501 
L 324.327605 177.765693 
L 325.975598 184.855288 
L 327.62359 200.466177 
L 329.271583 206.739069 
L 330.919575 203.014725 
L 332.567568 211.41211 
L 334.215561 222.115404 
L 337.511546 231.869769 
L 339.159539 237.977057 
L 340.807531 249.029516 
L 342.455524 254.648995 
L 344.103516 255.88975 
L 347.399502 259.80206 
L 349.047494 263.745386 
L 350.695487 264.758947 
L 352.343479 265.541007 
L 353.991472 266.613261 
L 355.639465 267.05794 
L 357.287457 267.144345 
L 358.93545 266.839691 
L 360.583443 266.711712 
L 362.231435 266.443431 
L 363.879428 266.880078 
L 365.52742 267.441538 
L 367.175413 267.737289 
L 368.823406 268.239861 
L 370.471398 268.451171 
L 372.119391 268.410749 
L 373.767383 267.324528 
L 375.415376 266.095883 
L 377.063369 265.047633 
L 378.711361 263.554507 
L 380.359354 260.80276 
L 382.007347 255.053224 
L 383.655339 248.105718 
L 385.303332 236.737721 
L 386.951324 217.001858 
L 388.599317 200.845466 
L 390.24731 191.138169 
L 391.895302 182.902753 
L 393.543295 169.341873 
L 395.191287 162.859914 
L 396.83928 171.161544 
L 398.487273 172.750952 
L 398.487273 172.750952 
" style="fill:none;stroke:#2ca02c;stroke-linecap:square;stroke-width:1.5;"/>
   </g>
   <g id="line2d_17">
    <path clip-path="url(#p072ab3132a)" d="M 73.832727 124.546943 
L 75.48072 107.372786 
L 77.128713 95.279653 
L 78.776705 96.365317 
L 80.424698 100.24427 
L 82.07269 108.021395 
L 83.720683 124.630816 
L 85.368676 135.243709 
L 87.016668 138.912213 
L 88.664661 137.367395 
L 90.312653 136.238664 
L 91.960646 138.120212 
L 95.256631 142.62223 
L 96.904624 143.775381 
L 98.552617 147.070334 
L 100.200609 147.91602 
L 101.848602 148.076973 
L 103.496594 147.908839 
L 105.144587 147.362652 
L 106.79258 147.382573 
L 108.440572 147.029936 
L 111.736557 146.873954 
L 113.38455 146.990347 
L 116.680535 146.901516 
L 118.328528 146.75831 
L 119.976521 146.439483 
L 121.624513 146.409938 
L 123.272506 146.180839 
L 129.864476 146.296676 
L 134.808454 146.213076 
L 143.048417 146.33592 
L 144.69641 146.703132 
L 146.344402 146.920731 
L 147.992395 148.134813 
L 149.640388 148.071668 
L 151.28838 148.5877 
L 152.936373 148.526867 
L 154.584365 145.608195 
L 156.232358 141.042504 
L 157.880351 135.736049 
L 159.528343 124.580865 
L 161.176336 115.436753 
L 162.824329 99.906674 
L 164.472321 95.32156 
L 166.120314 88.417994 
L 167.768306 83.286066 
L 169.416299 73.172019 
L 171.064292 66.116411 
L 172.712284 60.370775 
L 174.360277 56.779775 
L 176.008269 58.699113 
L 177.656262 53.568 
L 180.952247 69.477567 
L 182.60024 81.376708 
L 184.248233 89.631023 
L 185.896225 92.705768 
L 187.544218 108.514234 
L 189.19221 120.864581 
L 190.840203 123.266313 
L 192.488196 125.030019 
L 194.136188 130.454229 
L 195.784181 136.330998 
L 197.432174 140.513306 
L 202.376151 146.30586 
L 204.024144 147.03166 
L 205.672137 148.006387 
L 207.320129 148.046088 
L 208.968122 148.28785 
L 210.616114 148.192063 
L 212.264107 147.764266 
L 213.9121 147.987686 
L 217.208085 147.837892 
L 218.856078 148.014798 
L 220.50407 147.940081 
L 225.448048 147.401705 
L 227.096041 147.87214 
L 228.744033 147.796772 
L 230.392026 147.095237 
L 232.040018 146.853519 
L 241.927974 146.648027 
L 245.223959 146.192645 
L 253.463922 146.263181 
L 263.351878 146.242846 
L 264.999871 146.663411 
L 266.647863 146.872116 
L 269.943849 147.991237 
L 271.591841 147.979796 
L 273.239834 147.850949 
L 274.887826 148.526143 
L 278.183812 147.73861 
L 279.831804 147.043947 
L 281.479797 146.738126 
L 283.12779 142.937777 
L 286.423775 140.782383 
L 288.071767 138.866454 
L 289.71976 133.582649 
L 291.367753 124.573241 
L 293.015745 131.925635 
L 294.663738 131.220335 
L 296.311731 126.530177 
L 297.959723 122.979265 
L 299.607716 133.488099 
L 301.255708 138.48096 
L 302.903701 129.77851 
L 304.551694 127.061925 
L 306.199686 133.682895 
L 307.847679 137.679166 
L 309.495671 129.86491 
L 311.143664 127.738889 
L 312.791657 138.97474 
L 314.439649 141.857177 
L 316.087642 141.728704 
L 317.735635 140.387679 
L 319.383627 141.272612 
L 321.03162 142.459936 
L 322.679612 141.139645 
L 324.327605 140.226543 
L 325.975598 141.884493 
L 327.62359 145.275816 
L 329.271583 147.081789 
L 330.919575 146.27583 
L 332.567568 147.036444 
L 334.215561 148.145995 
L 335.863553 148.373116 
L 337.511546 148.289883 
L 339.159539 147.573819 
L 340.807531 147.910236 
L 342.455524 147.255752 
L 344.103516 147.128823 
L 345.751509 146.876455 
L 347.399502 146.744621 
L 349.047494 146.16588 
L 353.991472 146.247087 
L 365.52742 146.213624 
L 372.119391 145.973371 
L 373.767383 146.25148 
L 378.711361 146.325964 
L 380.359354 146.740526 
L 382.007347 147.389687 
L 383.655339 148.247692 
L 385.303332 148.240572 
L 386.951324 148.66555 
L 390.24731 143.312607 
L 391.895302 141.813086 
L 395.191287 134.262053 
L 396.83928 137.923963 
L 398.487273 138.641763 
L 398.487273 138.641763 
" style="fill:none;stroke:#d62728;stroke-linecap:square;stroke-width:1.5;"/>
   </g>
   <g id="patch_3">
    <path d="M 57.6 307.584 
L 57.6 41.472 
" style="fill:none;stroke:#000000;stroke-linecap:square;stroke-linejoin:miter;stroke-width:0.8;"/>
   </g>
   <g id="patch_4">
    <path d="M 414.72 307.584 
L 414.72 41.472 
" style="fill:none;stroke:#000000;stroke-linecap:square;stroke-linejoin:miter;stroke-width:0.8;"/>
   </g>
   <g id="patch_5">
    <path d="M 57.6 307.584 
L 414.72 307.584 
" style="fill:none;stroke:#000000;stroke-linecap:square;stroke-linejoin:miter;stroke-width:0.8;"/>
   </g>
   <g id="patch_6">
    <path d="M 57.6 41.472 
L 414.72 41.472 
" style="fill:none;stroke:#000000;stroke-linecap:square;stroke-linejoin:miter;stroke-width:0.8;"/>
   </g>
   <g id="text_14">
    <!-- Plot of Test Data vs MCMC Uncertainty  -->
    <defs>
     <path d="M 19.671875 64.796875 
L 19.671875 37.40625 
L 32.078125 37.40625 
Q 38.96875 37.40625 42.71875 40.96875 
Q 46.484375 44.53125 46.484375 51.125 
Q 46.484375 57.671875 42.71875 61.234375 
Q 38.96875 64.796875 32.078125 64.796875 
z
M 9.8125 72.90625 
L 32.078125 72.90625 
Q 44.34375 72.90625 50.609375 67.359375 
Q 56.890625 61.8125 56.890625 51.125 
Q 56.890625 40.328125 50.609375 34.8125 
Q 44.34375 29.296875 32.078125 29.296875 
L 19.671875 29.296875 
L 19.671875 0 
L 9.8125 0 
z
" id="DejaVuSans-50"/>
     <path d="M 9.421875 75.984375 
L 18.40625 75.984375 
L 18.40625 0 
L 9.421875 0 
z
" id="DejaVuSans-6c"/>
     <path d="M 30.609375 48.390625 
Q 23.390625 48.390625 19.1875 42.75 
Q 14.984375 37.109375 14.984375 27.296875 
Q 14.984375 17.484375 19.15625 11.84375 
Q 23.34375 6.203125 30.609375 6.203125 
Q 37.796875 6.203125 41.984375 11.859375 
Q 46.1875 17.53125 46.1875 27.296875 
Q 46.1875 37.015625 41.984375 42.703125 
Q 37.796875 48.390625 30.609375 48.390625 
z
M 30.609375 56 
Q 42.328125 56 49.015625 48.375 
Q 55.71875 40.765625 55.71875 27.296875 
Q 55.71875 13.875 49.015625 6.21875 
Q 42.328125 -1.421875 30.609375 -1.421875 
Q 18.84375 -1.421875 12.171875 6.21875 
Q 5.515625 13.875 5.515625 27.296875 
Q 5.515625 40.765625 12.171875 48.375 
Q 18.84375 56 30.609375 56 
z
" id="DejaVuSans-6f"/>
     <path d="M 18.3125 70.21875 
L 18.3125 54.6875 
L 36.8125 54.6875 
L 36.8125 47.703125 
L 18.3125 47.703125 
L 18.3125 18.015625 
Q 18.3125 11.328125 20.140625 9.421875 
Q 21.96875 7.515625 27.59375 7.515625 
L 36.8125 7.515625 
L 36.8125 0 
L 27.59375 0 
Q 17.1875 0 13.234375 3.875 
Q 9.28125 7.765625 9.28125 18.015625 
L 9.28125 47.703125 
L 2.6875 47.703125 
L 2.6875 54.6875 
L 9.28125 54.6875 
L 9.28125 70.21875 
z
" id="DejaVuSans-74"/>
     <path id="DejaVuSans-20"/>
     <path d="M 37.109375 75.984375 
L 37.109375 68.5 
L 28.515625 68.5 
Q 23.6875 68.5 21.796875 66.546875 
Q 19.921875 64.59375 19.921875 59.515625 
L 19.921875 54.6875 
L 34.71875 54.6875 
L 34.71875 47.703125 
L 19.921875 47.703125 
L 19.921875 0 
L 10.890625 0 
L 10.890625 47.703125 
L 2.296875 47.703125 
L 2.296875 54.6875 
L 10.890625 54.6875 
L 10.890625 58.5 
Q 10.890625 67.625 15.140625 71.796875 
Q 19.390625 75.984375 28.609375 75.984375 
z
" id="DejaVuSans-66"/>
     <path d="M -0.296875 72.90625 
L 61.375 72.90625 
L 61.375 64.59375 
L 35.5 64.59375 
L 35.5 0 
L 25.59375 0 
L 25.59375 64.59375 
L -0.296875 64.59375 
z
" id="DejaVuSans-54"/>
     <path d="M 56.203125 29.59375 
L 56.203125 25.203125 
L 14.890625 25.203125 
Q 15.484375 15.921875 20.484375 11.0625 
Q 25.484375 6.203125 34.421875 6.203125 
Q 39.59375 6.203125 44.453125 7.46875 
Q 49.3125 8.734375 54.109375 11.28125 
L 54.109375 2.78125 
Q 49.265625 0.734375 44.1875 -0.34375 
Q 39.109375 -1.421875 33.890625 -1.421875 
Q 20.796875 -1.421875 13.15625 6.1875 
Q 5.515625 13.8125 5.515625 26.8125 
Q 5.515625 40.234375 12.765625 48.109375 
Q 20.015625 56 32.328125 56 
Q 43.359375 56 49.78125 48.890625 
Q 56.203125 41.796875 56.203125 29.59375 
z
M 47.21875 32.234375 
Q 47.125 39.59375 43.09375 43.984375 
Q 39.0625 48.390625 32.421875 48.390625 
Q 24.90625 48.390625 20.390625 44.140625 
Q 15.875 39.890625 15.1875 32.171875 
z
" id="DejaVuSans-65"/>
     <path d="M 44.28125 53.078125 
L 44.28125 44.578125 
Q 40.484375 46.53125 36.375 47.5 
Q 32.28125 48.484375 27.875 48.484375 
Q 21.1875 48.484375 17.84375 46.4375 
Q 14.5 44.390625 14.5 40.28125 
Q 14.5 37.15625 16.890625 35.375 
Q 19.28125 33.59375 26.515625 31.984375 
L 29.59375 31.296875 
Q 39.15625 29.25 43.1875 25.515625 
Q 47.21875 21.78125 47.21875 15.09375 
Q 47.21875 7.46875 41.1875 3.015625 
Q 35.15625 -1.421875 24.609375 -1.421875 
Q 20.21875 -1.421875 15.453125 -0.5625 
Q 10.6875 0.296875 5.421875 2 
L 5.421875 11.28125 
Q 10.40625 8.6875 15.234375 7.390625 
Q 20.0625 6.109375 24.8125 6.109375 
Q 31.15625 6.109375 34.5625 8.28125 
Q 37.984375 10.453125 37.984375 14.40625 
Q 37.984375 18.0625 35.515625 20.015625 
Q 33.0625 21.96875 24.703125 23.78125 
L 21.578125 24.515625 
Q 13.234375 26.265625 9.515625 29.90625 
Q 5.8125 33.546875 5.8125 39.890625 
Q 5.8125 47.609375 11.28125 51.796875 
Q 16.75 56 26.8125 56 
Q 31.78125 56 36.171875 55.265625 
Q 40.578125 54.546875 44.28125 53.078125 
z
" id="DejaVuSans-73"/>
     <path d="M 19.671875 64.796875 
L 19.671875 8.109375 
L 31.59375 8.109375 
Q 46.6875 8.109375 53.6875 14.9375 
Q 60.6875 21.78125 60.6875 36.53125 
Q 60.6875 51.171875 53.6875 57.984375 
Q 46.6875 64.796875 31.59375 64.796875 
z
M 9.8125 72.90625 
L 30.078125 72.90625 
Q 51.265625 72.90625 61.171875 64.09375 
Q 71.09375 55.28125 71.09375 36.53125 
Q 71.09375 17.671875 61.125 8.828125 
Q 51.171875 0 30.078125 0 
L 9.8125 0 
z
" id="DejaVuSans-44"/>
     <path d="M 34.28125 27.484375 
Q 23.390625 27.484375 19.1875 25 
Q 14.984375 22.515625 14.984375 16.5 
Q 14.984375 11.71875 18.140625 8.90625 
Q 21.296875 6.109375 26.703125 6.109375 
Q 34.1875 6.109375 38.703125 11.40625 
Q 43.21875 16.703125 43.21875 25.484375 
L 43.21875 27.484375 
z
M 52.203125 31.203125 
L 52.203125 0 
L 43.21875 0 
L 43.21875 8.296875 
Q 40.140625 3.328125 35.546875 0.953125 
Q 30.953125 -1.421875 24.3125 -1.421875 
Q 15.921875 -1.421875 10.953125 3.296875 
Q 6 8.015625 6 15.921875 
Q 6 25.140625 12.171875 29.828125 
Q 18.359375 34.515625 30.609375 34.515625 
L 43.21875 34.515625 
L 43.21875 35.40625 
Q 43.21875 41.609375 39.140625 45 
Q 35.0625 48.390625 27.6875 48.390625 
Q 23 48.390625 18.546875 47.265625 
Q 14.109375 46.140625 10.015625 43.890625 
L 10.015625 52.203125 
Q 14.9375 54.109375 19.578125 55.046875 
Q 24.21875 56 28.609375 56 
Q 40.484375 56 46.34375 49.84375 
Q 52.203125 43.703125 52.203125 31.203125 
z
" id="DejaVuSans-61"/>
     <path d="M 2.984375 54.6875 
L 12.5 54.6875 
L 29.59375 8.796875 
L 46.6875 54.6875 
L 56.203125 54.6875 
L 35.6875 0 
L 23.484375 0 
z
" id="DejaVuSans-76"/>
     <path d="M 9.8125 72.90625 
L 24.515625 72.90625 
L 43.109375 23.296875 
L 61.8125 72.90625 
L 76.515625 72.90625 
L 76.515625 0 
L 66.890625 0 
L 66.890625 64.015625 
L 48.09375 14.015625 
L 38.1875 14.015625 
L 19.390625 64.015625 
L 19.390625 0 
L 9.8125 0 
z
" id="DejaVuSans-4d"/>
     <path d="M 64.40625 67.28125 
L 64.40625 56.890625 
Q 59.421875 61.53125 53.78125 63.8125 
Q 48.140625 66.109375 41.796875 66.109375 
Q 29.296875 66.109375 22.65625 58.46875 
Q 16.015625 50.828125 16.015625 36.375 
Q 16.015625 21.96875 22.65625 14.328125 
Q 29.296875 6.6875 41.796875 6.6875 
Q 48.140625 6.6875 53.78125 8.984375 
Q 59.421875 11.28125 64.40625 15.921875 
L 64.40625 5.609375 
Q 59.234375 2.09375 53.4375 0.328125 
Q 47.65625 -1.421875 41.21875 -1.421875 
Q 24.65625 -1.421875 15.125 8.703125 
Q 5.609375 18.84375 5.609375 36.375 
Q 5.609375 53.953125 15.125 64.078125 
Q 24.65625 74.21875 41.21875 74.21875 
Q 47.75 74.21875 53.53125 72.484375 
Q 59.328125 70.75 64.40625 67.28125 
z
" id="DejaVuSans-43"/>
     <path d="M 8.6875 72.90625 
L 18.609375 72.90625 
L 18.609375 28.609375 
Q 18.609375 16.890625 22.84375 11.734375 
Q 27.09375 6.59375 36.625 6.59375 
Q 46.09375 6.59375 50.34375 11.734375 
Q 54.59375 16.890625 54.59375 28.609375 
L 54.59375 72.90625 
L 64.5 72.90625 
L 64.5 27.390625 
Q 64.5 13.140625 57.4375 5.859375 
Q 50.390625 -1.421875 36.625 -1.421875 
Q 22.796875 -1.421875 15.734375 5.859375 
Q 8.6875 13.140625 8.6875 27.390625 
z
" id="DejaVuSans-55"/>
     <path d="M 54.890625 33.015625 
L 54.890625 0 
L 45.90625 0 
L 45.90625 32.71875 
Q 45.90625 40.484375 42.875 44.328125 
Q 39.84375 48.1875 33.796875 48.1875 
Q 26.515625 48.1875 22.3125 43.546875 
Q 18.109375 38.921875 18.109375 30.90625 
L 18.109375 0 
L 9.078125 0 
L 9.078125 54.6875 
L 18.109375 54.6875 
L 18.109375 46.1875 
Q 21.34375 51.125 25.703125 53.5625 
Q 30.078125 56 35.796875 56 
Q 45.21875 56 50.046875 50.171875 
Q 54.890625 44.34375 54.890625 33.015625 
z
" id="DejaVuSans-6e"/>
     <path d="M 48.78125 52.59375 
L 48.78125 44.1875 
Q 44.96875 46.296875 41.140625 47.34375 
Q 37.3125 48.390625 33.40625 48.390625 
Q 24.65625 48.390625 19.8125 42.84375 
Q 14.984375 37.3125 14.984375 27.296875 
Q 14.984375 17.28125 19.8125 11.734375 
Q 24.65625 6.203125 33.40625 6.203125 
Q 37.3125 6.203125 41.140625 7.25 
Q 44.96875 8.296875 48.78125 10.40625 
L 48.78125 2.09375 
Q 45.015625 0.34375 40.984375 -0.53125 
Q 36.96875 -1.421875 32.421875 -1.421875 
Q 20.0625 -1.421875 12.78125 6.34375 
Q 5.515625 14.109375 5.515625 27.296875 
Q 5.515625 40.671875 12.859375 48.328125 
Q 20.21875 56 33.015625 56 
Q 37.15625 56 41.109375 55.140625 
Q 45.0625 54.296875 48.78125 52.59375 
z
" id="DejaVuSans-63"/>
     <path d="M 41.109375 46.296875 
Q 39.59375 47.171875 37.8125 47.578125 
Q 36.03125 48 33.890625 48 
Q 26.265625 48 22.1875 43.046875 
Q 18.109375 38.09375 18.109375 28.8125 
L 18.109375 0 
L 9.078125 0 
L 9.078125 54.6875 
L 18.109375 54.6875 
L 18.109375 46.1875 
Q 20.953125 51.171875 25.484375 53.578125 
Q 30.03125 56 36.53125 56 
Q 37.453125 56 38.578125 55.875 
Q 39.703125 55.765625 41.0625 55.515625 
z
" id="DejaVuSans-72"/>
     <path d="M 9.421875 54.6875 
L 18.40625 54.6875 
L 18.40625 0 
L 9.421875 0 
z
M 9.421875 75.984375 
L 18.40625 75.984375 
L 18.40625 64.59375 
L 9.421875 64.59375 
z
" id="DejaVuSans-69"/>
     <path d="M 32.171875 -5.078125 
Q 28.375 -14.84375 24.75 -17.8125 
Q 21.140625 -20.796875 15.09375 -20.796875 
L 7.90625 -20.796875 
L 7.90625 -13.28125 
L 13.1875 -13.28125 
Q 16.890625 -13.28125 18.9375 -11.515625 
Q 21 -9.765625 23.484375 -3.21875 
L 25.09375 0.875 
L 2.984375 54.6875 
L 12.5 54.6875 
L 29.59375 11.921875 
L 46.6875 54.6875 
L 56.203125 54.6875 
z
" id="DejaVuSans-79"/>
    </defs>
    <g transform="translate(118.112813 35.472)scale(0.12 -0.12)">
     <use xlink:href="#DejaVuSans-50"/>
     <use x="60.302734" xlink:href="#DejaVuSans-6c"/>
     <use x="88.085938" xlink:href="#DejaVuSans-6f"/>
     <use x="149.267578" xlink:href="#DejaVuSans-74"/>
     <use x="188.476562" xlink:href="#DejaVuSans-20"/>
     <use x="220.263672" xlink:href="#DejaVuSans-6f"/>
     <use x="281.445312" xlink:href="#DejaVuSans-66"/>
     <use x="316.650391" xlink:href="#DejaVuSans-20"/>
     <use x="348.4375" xlink:href="#DejaVuSans-54"/>
     <use x="409.255859" xlink:href="#DejaVuSans-65"/>
     <use x="470.779297" xlink:href="#DejaVuSans-73"/>
     <use x="522.878906" xlink:href="#DejaVuSans-74"/>
     <use x="562.087891" xlink:href="#DejaVuSans-20"/>
     <use x="593.875" xlink:href="#DejaVuSans-44"/>
     <use x="670.876953" xlink:href="#DejaVuSans-61"/>
     <use x="732.15625" xlink:href="#DejaVuSans-74"/>
     <use x="771.365234" xlink:href="#DejaVuSans-61"/>
     <use x="832.644531" xlink:href="#DejaVuSans-20"/>
     <use x="864.431641" xlink:href="#DejaVuSans-76"/>
     <use x="923.611328" xlink:href="#DejaVuSans-73"/>
     <use x="975.710938" xlink:href="#DejaVuSans-20"/>
     <use x="1007.498047" xlink:href="#DejaVuSans-4d"/>
     <use x="1093.777344" xlink:href="#DejaVuSans-43"/>
     <use x="1163.601562" xlink:href="#DejaVuSans-4d"/>
     <use x="1249.880859" xlink:href="#DejaVuSans-43"/>
     <use x="1319.705078" xlink:href="#DejaVuSans-20"/>
     <use x="1351.492188" xlink:href="#DejaVuSans-55"/>
     <use x="1424.685547" xlink:href="#DejaVuSans-6e"/>
     <use x="1488.064453" xlink:href="#DejaVuSans-63"/>
     <use x="1543.044922" xlink:href="#DejaVuSans-65"/>
     <use x="1604.568359" xlink:href="#DejaVuSans-72"/>
     <use x="1645.681641" xlink:href="#DejaVuSans-74"/>
     <use x="1684.890625" xlink:href="#DejaVuSans-61"/>
     <use x="1746.169922" xlink:href="#DejaVuSans-69"/>
     <use x="1773.953125" xlink:href="#DejaVuSans-6e"/>
     <use x="1837.332031" xlink:href="#DejaVuSans-74"/>
     <use x="1876.541016" xlink:href="#DejaVuSans-79"/>
     <use x="1935.720703" xlink:href="#DejaVuSans-20"/>
    </g>
   </g>
   <g id="legend_1">
    <g id="patch_7">
     <path d="M 277.843437 108.1845 
L 407.72 108.1845 
Q 409.72 108.1845 409.72 106.1845 
L 409.72 48.472 
Q 409.72 46.472 407.72 46.472 
L 277.843437 46.472 
Q 275.843437 46.472 275.843437 48.472 
L 275.843437 106.1845 
Q 275.843437 108.1845 277.843437 108.1845 
z
" style="fill:#ffffff;opacity:0.8;stroke:#cccccc;stroke-linejoin:miter;"/>
    </g>
    <g id="line2d_18">
     <path d="M 279.843437 54.570438 
L 299.843437 54.570438 
" style="fill:none;stroke:#1f77b4;stroke-linecap:square;stroke-width:1.5;"/>
    </g>
    <g id="line2d_19"/>
    <g id="text_15">
     <!-- actual -->
     <defs>
      <path d="M 8.5 21.578125 
L 8.5 54.6875 
L 17.484375 54.6875 
L 17.484375 21.921875 
Q 17.484375 14.15625 20.5 10.265625 
Q 23.53125 6.390625 29.59375 6.390625 
Q 36.859375 6.390625 41.078125 11.03125 
Q 45.3125 15.671875 45.3125 23.6875 
L 45.3125 54.6875 
L 54.296875 54.6875 
L 54.296875 0 
L 45.3125 0 
L 45.3125 8.40625 
Q 42.046875 3.421875 37.71875 1 
Q 33.40625 -1.421875 27.6875 -1.421875 
Q 18.265625 -1.421875 13.375 4.4375 
Q 8.5 10.296875 8.5 21.578125 
z
M 31.109375 56 
z
" id="DejaVuSans-75"/>
     </defs>
     <g transform="translate(307.843437 58.070438)scale(0.1 -0.1)">
      <use xlink:href="#DejaVuSans-61"/>
      <use x="61.279297" xlink:href="#DejaVuSans-63"/>
      <use x="116.259766" xlink:href="#DejaVuSans-74"/>
      <use x="155.46875" xlink:href="#DejaVuSans-75"/>
      <use x="218.847656" xlink:href="#DejaVuSans-61"/>
      <use x="280.126953" xlink:href="#DejaVuSans-6c"/>
     </g>
    </g>
    <g id="line2d_20">
     <path d="M 279.843437 69.248563 
L 299.843437 69.248563 
" style="fill:none;stroke:#ff7f0e;stroke-linecap:square;stroke-width:1.5;"/>
    </g>
    <g id="line2d_21"/>
    <g id="text_16">
     <!-- pred. (mean) -->
     <defs>
      <path d="M 18.109375 8.203125 
L 18.109375 -20.796875 
L 9.078125 -20.796875 
L 9.078125 54.6875 
L 18.109375 54.6875 
L 18.109375 46.390625 
Q 20.953125 51.265625 25.265625 53.625 
Q 29.59375 56 35.59375 56 
Q 45.5625 56 51.78125 48.09375 
Q 58.015625 40.1875 58.015625 27.296875 
Q 58.015625 14.40625 51.78125 6.484375 
Q 45.5625 -1.421875 35.59375 -1.421875 
Q 29.59375 -1.421875 25.265625 0.953125 
Q 20.953125 3.328125 18.109375 8.203125 
z
M 48.6875 27.296875 
Q 48.6875 37.203125 44.609375 42.84375 
Q 40.53125 48.484375 33.40625 48.484375 
Q 26.265625 48.484375 22.1875 42.84375 
Q 18.109375 37.203125 18.109375 27.296875 
Q 18.109375 17.390625 22.1875 11.75 
Q 26.265625 6.109375 33.40625 6.109375 
Q 40.53125 6.109375 44.609375 11.75 
Q 48.6875 17.390625 48.6875 27.296875 
z
" id="DejaVuSans-70"/>
      <path d="M 45.40625 46.390625 
L 45.40625 75.984375 
L 54.390625 75.984375 
L 54.390625 0 
L 45.40625 0 
L 45.40625 8.203125 
Q 42.578125 3.328125 38.25 0.953125 
Q 33.9375 -1.421875 27.875 -1.421875 
Q 17.96875 -1.421875 11.734375 6.484375 
Q 5.515625 14.40625 5.515625 27.296875 
Q 5.515625 40.1875 11.734375 48.09375 
Q 17.96875 56 27.875 56 
Q 33.9375 56 38.25 53.625 
Q 42.578125 51.265625 45.40625 46.390625 
z
M 14.796875 27.296875 
Q 14.796875 17.390625 18.875 11.75 
Q 22.953125 6.109375 30.078125 6.109375 
Q 37.203125 6.109375 41.296875 11.75 
Q 45.40625 17.390625 45.40625 27.296875 
Q 45.40625 37.203125 41.296875 42.84375 
Q 37.203125 48.484375 30.078125 48.484375 
Q 22.953125 48.484375 18.875 42.84375 
Q 14.796875 37.203125 14.796875 27.296875 
z
" id="DejaVuSans-64"/>
      <path d="M 31 75.875 
Q 24.46875 64.65625 21.28125 53.65625 
Q 18.109375 42.671875 18.109375 31.390625 
Q 18.109375 20.125 21.3125 9.0625 
Q 24.515625 -2 31 -13.1875 
L 23.1875 -13.1875 
Q 15.875 -1.703125 12.234375 9.375 
Q 8.59375 20.453125 8.59375 31.390625 
Q 8.59375 42.28125 12.203125 53.3125 
Q 15.828125 64.359375 23.1875 75.875 
z
" id="DejaVuSans-28"/>
      <path d="M 52 44.1875 
Q 55.375 50.25 60.0625 53.125 
Q 64.75 56 71.09375 56 
Q 79.640625 56 84.28125 50.015625 
Q 88.921875 44.046875 88.921875 33.015625 
L 88.921875 0 
L 79.890625 0 
L 79.890625 32.71875 
Q 79.890625 40.578125 77.09375 44.375 
Q 74.3125 48.1875 68.609375 48.1875 
Q 61.625 48.1875 57.5625 43.546875 
Q 53.515625 38.921875 53.515625 30.90625 
L 53.515625 0 
L 44.484375 0 
L 44.484375 32.71875 
Q 44.484375 40.625 41.703125 44.40625 
Q 38.921875 48.1875 33.109375 48.1875 
Q 26.21875 48.1875 22.15625 43.53125 
Q 18.109375 38.875 18.109375 30.90625 
L 18.109375 0 
L 9.078125 0 
L 9.078125 54.6875 
L 18.109375 54.6875 
L 18.109375 46.1875 
Q 21.1875 51.21875 25.484375 53.609375 
Q 29.78125 56 35.6875 56 
Q 41.65625 56 45.828125 52.96875 
Q 50 49.953125 52 44.1875 
z
" id="DejaVuSans-6d"/>
      <path d="M 8.015625 75.875 
L 15.828125 75.875 
Q 23.140625 64.359375 26.78125 53.3125 
Q 30.421875 42.28125 30.421875 31.390625 
Q 30.421875 20.453125 26.78125 9.375 
Q 23.140625 -1.703125 15.828125 -13.1875 
L 8.015625 -13.1875 
Q 14.5 -2 17.703125 9.0625 
Q 20.90625 20.125 20.90625 31.390625 
Q 20.90625 42.671875 17.703125 53.65625 
Q 14.5 64.65625 8.015625 75.875 
z
" id="DejaVuSans-29"/>
     </defs>
     <g transform="translate(307.843437 72.748563)scale(0.1 -0.1)">
      <use xlink:href="#DejaVuSans-70"/>
      <use x="63.476562" xlink:href="#DejaVuSans-72"/>
      <use x="104.558594" xlink:href="#DejaVuSans-65"/>
      <use x="166.082031" xlink:href="#DejaVuSans-64"/>
      <use x="229.558594" xlink:href="#DejaVuSans-2e"/>
      <use x="261.345703" xlink:href="#DejaVuSans-20"/>
      <use x="293.132812" xlink:href="#DejaVuSans-28"/>
      <use x="332.146484" xlink:href="#DejaVuSans-6d"/>
      <use x="429.558594" xlink:href="#DejaVuSans-65"/>
      <use x="491.082031" xlink:href="#DejaVuSans-61"/>
      <use x="552.361328" xlink:href="#DejaVuSans-6e"/>
      <use x="615.740234" xlink:href="#DejaVuSans-29"/>
     </g>
    </g>
    <g id="line2d_22">
     <path d="M 279.843437 83.926688 
L 299.843437 83.926688 
" style="fill:none;stroke:#2ca02c;stroke-linecap:square;stroke-width:1.5;"/>
    </g>
    <g id="line2d_23"/>
    <g id="text_17">
     <!-- pred.(5th percen.) -->
     <defs>
      <path d="M 54.890625 33.015625 
L 54.890625 0 
L 45.90625 0 
L 45.90625 32.71875 
Q 45.90625 40.484375 42.875 44.328125 
Q 39.84375 48.1875 33.796875 48.1875 
Q 26.515625 48.1875 22.3125 43.546875 
Q 18.109375 38.921875 18.109375 30.90625 
L 18.109375 0 
L 9.078125 0 
L 9.078125 75.984375 
L 18.109375 75.984375 
L 18.109375 46.1875 
Q 21.34375 51.125 25.703125 53.5625 
Q 30.078125 56 35.796875 56 
Q 45.21875 56 50.046875 50.171875 
Q 54.890625 44.34375 54.890625 33.015625 
z
" id="DejaVuSans-68"/>
     </defs>
     <g transform="translate(307.843437 87.426688)scale(0.1 -0.1)">
      <use xlink:href="#DejaVuSans-70"/>
      <use x="63.476562" xlink:href="#DejaVuSans-72"/>
      <use x="104.558594" xlink:href="#DejaVuSans-65"/>
      <use x="166.082031" xlink:href="#DejaVuSans-64"/>
      <use x="229.558594" xlink:href="#DejaVuSans-2e"/>
      <use x="261.345703" xlink:href="#DejaVuSans-28"/>
      <use x="300.359375" xlink:href="#DejaVuSans-35"/>
      <use x="363.982422" xlink:href="#DejaVuSans-74"/>
      <use x="403.191406" xlink:href="#DejaVuSans-68"/>
      <use x="466.570312" xlink:href="#DejaVuSans-20"/>
      <use x="498.357422" xlink:href="#DejaVuSans-70"/>
      <use x="561.833984" xlink:href="#DejaVuSans-65"/>
      <use x="623.357422" xlink:href="#DejaVuSans-72"/>
      <use x="664.439453" xlink:href="#DejaVuSans-63"/>
      <use x="719.419922" xlink:href="#DejaVuSans-65"/>
      <use x="780.943359" xlink:href="#DejaVuSans-6e"/>
      <use x="844.322266" xlink:href="#DejaVuSans-2e"/>
      <use x="876.109375" xlink:href="#DejaVuSans-29"/>
     </g>
    </g>
    <g id="line2d_24">
     <path d="M 279.843437 98.604813 
L 299.843437 98.604813 
" style="fill:none;stroke:#d62728;stroke-linecap:square;stroke-width:1.5;"/>
    </g>
    <g id="line2d_25"/>
    <g id="text_18">
     <!-- pred.(95th percen.) -->
     <defs>
      <path d="M 10.984375 1.515625 
L 10.984375 10.5 
Q 14.703125 8.734375 18.5 7.8125 
Q 22.3125 6.890625 25.984375 6.890625 
Q 35.75 6.890625 40.890625 13.453125 
Q 46.046875 20.015625 46.78125 33.40625 
Q 43.953125 29.203125 39.59375 26.953125 
Q 35.25 24.703125 29.984375 24.703125 
Q 19.046875 24.703125 12.671875 31.3125 
Q 6.296875 37.9375 6.296875 49.421875 
Q 6.296875 60.640625 12.9375 67.421875 
Q 19.578125 74.21875 30.609375 74.21875 
Q 43.265625 74.21875 49.921875 64.515625 
Q 56.59375 54.828125 56.59375 36.375 
Q 56.59375 19.140625 48.40625 8.859375 
Q 40.234375 -1.421875 26.421875 -1.421875 
Q 22.703125 -1.421875 18.890625 -0.6875 
Q 15.09375 0.046875 10.984375 1.515625 
z
M 30.609375 32.421875 
Q 37.25 32.421875 41.125 36.953125 
Q 45.015625 41.5 45.015625 49.421875 
Q 45.015625 57.28125 41.125 61.84375 
Q 37.25 66.40625 30.609375 66.40625 
Q 23.96875 66.40625 20.09375 61.84375 
Q 16.21875 57.28125 16.21875 49.421875 
Q 16.21875 41.5 20.09375 36.953125 
Q 23.96875 32.421875 30.609375 32.421875 
z
" id="DejaVuSans-39"/>
     </defs>
     <g transform="translate(307.843437 102.104813)scale(0.1 -0.1)">
      <use xlink:href="#DejaVuSans-70"/>
      <use x="63.476562" xlink:href="#DejaVuSans-72"/>
      <use x="104.558594" xlink:href="#DejaVuSans-65"/>
      <use x="166.082031" xlink:href="#DejaVuSans-64"/>
      <use x="229.558594" xlink:href="#DejaVuSans-2e"/>
      <use x="261.345703" xlink:href="#DejaVuSans-28"/>
      <use x="300.359375" xlink:href="#DejaVuSans-39"/>
      <use x="363.982422" xlink:href="#DejaVuSans-35"/>
      <use x="427.605469" xlink:href="#DejaVuSans-74"/>
      <use x="466.814453" xlink:href="#DejaVuSans-68"/>
      <use x="530.193359" xlink:href="#DejaVuSans-20"/>
      <use x="561.980469" xlink:href="#DejaVuSans-70"/>
      <use x="625.457031" xlink:href="#DejaVuSans-65"/>
      <use x="686.980469" xlink:href="#DejaVuSans-72"/>
      <use x="728.0625" xlink:href="#DejaVuSans-63"/>
      <use x="783.042969" xlink:href="#DejaVuSans-65"/>
      <use x="844.566406" xlink:href="#DejaVuSans-6e"/>
      <use x="907.945312" xlink:href="#DejaVuSans-2e"/>
      <use x="939.732422" xlink:href="#DejaVuSans-29"/>
     </g>
    </g>
   </g>
  </g>
 </g>
 <defs>
  <clipPath id="p072ab3132a">
   <rect height="266.112" width="357.12" x="57.6" y="41.472"/>
  </clipPath>
 </defs>
</svg>
