<?xml version="1.0" encoding="utf-8" standalone="no"?>
<!DOCTYPE svg PUBLIC "-//W3C//DTD SVG 1.1//EN"
  "http://www.w3.org/Graphics/SVG/1.1/DTD/svg11.dtd">
<!-- Created with matplotlib (http://matplotlib.org/) -->
<svg height="345pt" version="1.1" viewBox="0 0 460 345" width="460pt" xmlns="http://www.w3.org/2000/svg" xmlns:xlink="http://www.w3.org/1999/xlink">
 <defs>
  <style type="text/css">
*{stroke-linecap:butt;stroke-linejoin:round;}
  </style>
 </defs>
 <g id="figure_1">
  <g id="patch_1">
   <path d="M 0 345.6 
L 460.8 345.6 
L 460.8 0 
L 0 0 
z
" style="fill:#ffffff;"/>
  </g>
  <g id="axes_1">
   <g id="patch_2">
    <path d="M 57.6 307.584 
L 414.72 307.584 
L 414.72 41.472 
L 57.6 41.472 
z
" style="fill:#ffffff;"/>
   </g>
   <g id="PolyCollection_1">
    <path clip-path="url(#p0fb8ec0ce0)" d="M 73.832727 200.493587 
L 73.832727 274.827628 
L 74.92584 275.339096 
L 76.018953 275.732949 
L 77.112066 275.610261 
L 78.205179 275.505383 
L 79.298292 274.482782 
L 80.391405 271.968666 
L 81.484518 270.835818 
L 82.577631 266.025467 
L 83.670744 259.81582 
L 84.763857 248.703529 
L 85.85697 229.826036 
L 86.950083 211.909773 
L 88.043196 206.781245 
L 89.136309 207.177588 
L 90.229421 208.21019 
L 91.322534 208.725216 
L 92.415647 208.991031 
L 93.50876 209.89698 
L 94.601873 210.66634 
L 95.694986 210.572752 
L 96.788099 210.607149 
L 97.881212 210.65268 
L 98.974325 210.486824 
L 100.067438 210.374684 
L 101.160551 209.945625 
L 102.253664 209.890022 
L 103.346777 209.390118 
L 104.43989 208.953447 
L 105.533003 208.733629 
L 106.626116 208.318962 
L 107.719229 208.36531 
L 108.812342 207.291225 
L 109.905455 206.717695 
L 110.998567 207.08365 
L 112.09168 207.210017 
L 113.184793 207.090375 
L 114.277906 206.943592 
L 115.371019 206.940176 
L 116.464132 206.922 
L 117.557245 206.658254 
L 118.650358 206.404889 
L 119.743471 207.804172 
L 120.836584 215.4668 
L 121.929697 224.929234 
L 123.02281 226.384292 
L 124.115923 232.426882 
L 125.209036 240.617703 
L 126.302149 246.067477 
L 127.395262 247.824404 
L 128.488375 250.940582 
L 129.581488 257.646213 
L 130.674601 260.955446 
L 131.767713 261.358186 
L 132.860826 261.322466 
L 133.953939 263.706984 
L 135.047052 266.047523 
L 136.140165 267.184907 
L 137.233278 268.638598 
L 138.326391 271.760353 
L 139.419504 273.445455 
L 140.512617 273.087953 
L 141.60573 272.300319 
L 142.698843 272.677242 
L 143.791956 271.65684 
L 144.885069 270.644186 
L 145.978182 270.066819 
L 147.071295 266.976509 
L 148.164408 261.644837 
L 149.257521 256.148326 
L 150.350634 253.531486 
L 151.443747 249.203609 
L 152.53686 242.343586 
L 153.629972 238.546511 
L 154.723085 234.675792 
L 155.816198 228.778177 
L 156.909311 220.19652 
L 158.002424 209.878783 
L 159.095537 208.301567 
L 160.18865 207.949633 
L 161.281763 207.904395 
L 162.374876 206.461248 
L 163.467989 206.932074 
L 164.561102 207.536612 
L 165.654215 208.581028 
L 166.747328 209.178941 
L 167.840441 209.370863 
L 168.933554 209.969892 
L 170.026667 210.092139 
L 171.11978 209.375864 
L 172.212893 209.594872 
L 173.306006 209.694833 
L 174.399118 209.554299 
L 175.492231 208.957519 
L 176.585344 208.708263 
L 177.678457 208.374296 
L 178.77157 207.974605 
L 179.864683 207.104741 
L 180.957796 206.744278 
L 182.050909 206.670652 
L 183.144022 206.729264 
L 184.237135 206.61742 
L 185.330248 206.430802 
L 186.423361 206.477279 
L 187.516474 206.500136 
L 188.609587 206.459135 
L 189.7027 206.461045 
L 190.795813 207.931104 
L 191.888926 207.888682 
L 192.982039 208.424988 
L 194.075152 208.690047 
L 195.168264 209.83957 
L 196.261377 211.613323 
L 197.35449 214.260578 
L 198.447603 217.951975 
L 199.540716 225.541764 
L 200.633829 231.585872 
L 201.726942 234.617894 
L 202.820055 233.715121 
L 203.913168 237.091184 
L 205.006281 243.244691 
L 206.099394 248.66628 
L 207.192507 252.64097 
L 208.28562 256.180201 
L 209.378733 261.156593 
L 210.471846 264.473738 
L 211.564959 265.248914 
L 212.658072 266.031896 
L 213.751185 268.001107 
L 214.844298 270.330222 
L 215.93741 272.478617 
L 217.030523 274.154071 
L 218.123636 276.109079 
L 219.216749 277.259707 
L 220.309862 278.037124 
L 221.402975 278.272876 
L 222.496088 277.986616 
L 223.589201 277.92327 
L 224.682314 277.551347 
L 225.775427 276.848069 
L 226.86854 276.074252 
L 227.961653 274.12957 
L 229.054766 272.03662 
L 230.147879 267.694939 
L 231.240992 263.233903 
L 232.334105 257.844511 
L 233.427218 250.863079 
L 234.520331 245.558315 
L 235.613444 236.60138 
L 236.706556 225.292787 
L 237.799669 215.81626 
L 238.892782 208.06692 
L 239.985895 206.605523 
L 241.079008 206.802478 
L 242.172121 207.205858 
L 243.265234 207.342046 
L 244.358347 207.784352 
L 245.45146 207.834222 
L 246.544573 207.831274 
L 247.637686 208.149799 
L 248.730799 208.245861 
L 249.823912 207.940791 
L 250.917025 207.96489 
L 252.010138 207.769636 
L 253.103251 207.828345 
L 254.196364 207.241296 
L 255.289477 207.090199 
L 256.38259 206.824671 
L 257.475702 206.695029 
L 258.568815 206.724478 
L 259.661928 206.434816 
L 260.755041 206.419589 
L 261.848154 206.46465 
L 262.941267 207.840982 
L 264.03438 209.58208 
L 265.127493 211.630629 
L 266.220606 211.202284 
L 267.313719 218.933185 
L 268.406832 228.356362 
L 269.499945 234.035586 
L 270.593058 235.03493 
L 271.686171 235.035796 
L 272.779284 236.357121 
L 273.872397 235.457336 
L 274.96551 231.737415 
L 276.058623 230.693728 
L 277.151736 230.597834 
L 278.244848 233.452414 
L 279.337961 237.417467 
L 280.431074 241.367285 
L 281.524187 246.496944 
L 282.6173 249.895886 
L 283.710413 254.617121 
L 284.803526 256.753405 
L 285.896639 259.138806 
L 286.989752 262.342814 
L 288.082865 265.664246 
L 289.175978 267.378283 
L 290.269091 269.526018 
L 291.362204 273.351825 
L 292.455317 275.189654 
L 293.54843 276.433896 
L 294.641543 277.056383 
L 295.734656 277.058967 
L 296.827769 275.947701 
L 297.920882 274.095594 
L 299.013994 271.18041 
L 300.107107 267.468549 
L 301.20022 262.886242 
L 302.293333 255.119561 
L 303.386446 245.009037 
L 304.479559 234.307173 
L 305.572672 226.754156 
L 306.665785 209.997997 
L 307.758898 206.604508 
L 308.852011 206.502796 
L 309.945124 206.824453 
L 311.038237 206.889675 
L 312.13135 208.376642 
L 313.224463 209.038961 
L 314.317576 209.502445 
L 315.410689 210.326762 
L 316.503802 210.612951 
L 317.596915 210.506881 
L 318.690028 210.510435 
L 319.78314 210.400833 
L 320.876253 209.74098 
L 321.969366 208.9839 
L 323.062479 208.874903 
L 324.155592 208.704673 
L 325.248705 208.271885 
L 326.341818 208.384227 
L 327.434931 208.400413 
L 328.528044 208.474241 
L 329.621157 208.44924 
L 330.71427 208.422528 
L 331.807383 208.338875 
L 332.900496 207.279244 
L 333.993609 206.913213 
L 335.086722 206.565386 
L 336.179835 206.397308 
L 337.272948 209.205942 
L 338.366061 219.276197 
L 339.459174 221.911434 
L 340.552287 223.628973 
L 341.645399 228.577837 
L 342.738512 235.218975 
L 343.831625 244.851949 
L 344.924738 248.31979 
L 346.017851 253.748385 
L 347.110964 262.030284 
L 348.204077 266.031818 
L 349.29719 268.179292 
L 350.390303 268.944394 
L 351.483416 270.734324 
L 352.576529 272.482891 
L 353.669642 272.861564 
L 354.762755 272.644974 
L 355.855868 272.901532 
L 356.948981 273.080896 
L 358.042094 273.129592 
L 359.135207 271.651066 
L 360.22832 271.921768 
L 361.321433 271.923917 
L 362.414545 272.501766 
L 363.507658 273.659014 
L 364.600771 274.806582 
L 365.693884 276.050479 
L 366.786997 276.773309 
L 367.88011 277.621361 
L 368.973223 278.182907 
L 370.066336 278.576575 
L 371.159449 278.75497 
L 372.252562 278.784104 
L 373.345675 278.162908 
L 374.438788 277.46306 
L 375.531901 276.422842 
L 376.625014 274.031471 
L 377.718127 271.779307 
L 378.81124 268.735154 
L 379.904353 264.053989 
L 380.997466 256.754856 
L 382.090579 252.653216 
L 383.183691 247.964048 
L 384.276804 240.867154 
L 385.369917 233.182552 
L 386.46303 225.98456 
L 387.556143 223.732215 
L 388.649256 217.582695 
L 389.742369 213.663156 
L 390.835482 208.709979 
L 391.928595 208.396232 
L 393.021708 211.239188 
L 394.114821 210.997215 
L 395.207934 209.497575 
L 396.301047 210.343777 
L 397.39416 215.272223 
L 398.487273 214.558006 
L 398.487273 194.548157 
L 398.487273 194.548157 
L 397.39416 194.35527 
L 396.301047 191.822498 
L 395.207934 190.571197 
L 394.114821 192.458295 
L 393.021708 192.627777 
L 391.928595 188.920318 
L 390.835482 190.039547 
L 389.742369 194.356463 
L 388.649256 195.648314 
L 387.556143 196.925798 
L 386.46303 197.375709 
L 385.369917 199.571367 
L 384.276804 201.130671 
L 383.183691 201.886324 
L 382.090579 201.969933 
L 380.997466 201.570227 
L 379.904353 201.541475 
L 378.81124 201.482143 
L 377.718127 201.051696 
L 376.625014 200.711494 
L 375.531901 200.531643 
L 374.438788 200.319369 
L 373.345675 200.163669 
L 372.252562 200.026888 
L 371.159449 200.028731 
L 370.066336 200.031585 
L 368.973223 200.1295 
L 367.88011 200.219478 
L 366.786997 200.38079 
L 365.693884 200.495273 
L 364.600771 200.490932 
L 363.507658 200.707806 
L 362.414545 200.874143 
L 361.321433 200.983982 
L 360.22832 200.995353 
L 359.135207 201.031669 
L 358.042094 200.838589 
L 356.948981 200.78696 
L 355.855868 200.850736 
L 354.762755 200.871303 
L 353.669642 200.847928 
L 352.576529 200.885819 
L 351.483416 201.12751 
L 350.390303 201.387855 
L 349.29719 201.474347 
L 348.204077 201.585298 
L 347.110964 201.324475 
L 346.017851 201.73022 
L 344.924738 201.693642 
L 343.831625 201.388943 
L 342.738512 199.946178 
L 341.645399 198.159676 
L 340.552287 196.681259 
L 339.459174 196.660225 
L 338.366061 196.098281 
L 337.272948 190.22798 
L 336.179835 181.748745 
L 335.086722 167.555961 
L 333.993609 149.140912 
L 332.900496 136.419143 
L 331.807383 120.918757 
L 330.71427 116.886559 
L 329.621157 116.360477 
L 328.528044 116.975396 
L 327.434931 121.213215 
L 326.341818 121.429843 
L 325.248705 118.029909 
L 324.155592 106.656853 
L 323.062479 103.110959 
L 321.969366 95.91489 
L 320.876253 87.924778 
L 319.78314 82.724372 
L 318.690028 79.234163 
L 317.596915 78.501915 
L 316.503802 79.378444 
L 315.410689 84.44985 
L 314.317576 94.754545 
L 313.224463 107.830645 
L 312.13135 122.111278 
L 311.038237 152.389165 
L 309.945124 167.58029 
L 308.852011 175.656472 
L 307.758898 181.965707 
L 306.665785 191.314908 
L 305.572672 197.82709 
L 304.479559 199.875446 
L 303.386446 201.835693 
L 302.293333 201.788412 
L 301.20022 201.415054 
L 300.107107 201.649498 
L 299.013994 201.161022 
L 297.920882 200.68279 
L 296.827769 200.535975 
L 295.734656 200.357769 
L 294.641543 200.349585 
L 293.54843 200.439649 
L 292.455317 200.472389 
L 291.362204 200.717064 
L 290.269091 201.280978 
L 289.175978 201.572055 
L 288.082865 201.49132 
L 286.989752 201.341312 
L 285.896639 201.440977 
L 284.803526 201.521506 
L 283.710413 201.696339 
L 282.6173 201.645614 
L 281.524187 201.737697 
L 280.431074 200.930556 
L 279.337961 200.541464 
L 278.244848 199.421703 
L 277.151736 198.660357 
L 276.058623 198.785449 
L 274.96551 198.948115 
L 273.872397 200.198489 
L 272.779284 200.383144 
L 271.686171 199.996884 
L 270.593058 200.032348 
L 269.499945 199.631119 
L 268.406832 198.073087 
L 267.313719 195.899561 
L 266.220606 192.619995 
L 265.127493 192.968993 
L 264.03438 191.135219 
L 262.941267 186.729797 
L 261.848154 182.593574 
L 260.755041 179.294231 
L 259.661928 177.781999 
L 258.568815 164.805974 
L 257.475702 160.240932 
L 256.38259 152.078474 
L 255.289477 145.019204 
L 254.196364 137.298457 
L 253.103251 128.94963 
L 252.010138 129.861532 
L 250.917025 127.094805 
L 249.823912 127.340246 
L 248.730799 123.13523 
L 247.637686 124.67835 
L 246.544573 129.038139 
L 245.45146 129.019629 
L 244.358347 129.795756 
L 243.265234 137.032292 
L 242.172121 146.364916 
L 241.079008 160.425013 
L 239.985895 175.423881 
L 238.892782 187.859186 
L 237.799669 194.792363 
L 236.706556 197.304145 
L 235.613444 200.635081 
L 234.520331 201.833901 
L 233.427218 201.717619 
L 232.334105 201.564041 
L 231.240992 201.379392 
L 230.147879 201.630923 
L 229.054766 201.032023 
L 227.961653 200.674069 
L 226.86854 200.534414 
L 225.775427 200.410328 
L 224.682314 200.297924 
L 223.589201 200.185923 
L 222.496088 200.190524 
L 221.402975 200.124158 
L 220.309862 200.154547 
L 219.216749 200.280592 
L 218.123636 200.481697 
L 217.030523 200.605676 
L 215.93741 200.87116 
L 214.844298 201.18275 
L 213.751185 201.480731 
L 212.658072 201.654973 
L 211.564959 201.503489 
L 210.471846 201.276156 
L 209.378733 201.424229 
L 208.28562 201.512246 
L 207.192507 201.885452 
L 206.099394 201.683436 
L 205.006281 201.193663 
L 203.913168 200.448623 
L 202.820055 199.487504 
L 201.726942 199.862255 
L 200.633829 198.794932 
L 199.540716 197.158695 
L 198.447603 195.560435 
L 197.35449 194.360451 
L 196.261377 192.852241 
L 195.168264 191.20774 
L 194.075152 189.926183 
L 192.982039 188.994588 
L 191.888926 185.385707 
L 190.795813 185.483346 
L 189.7027 182.825914 
L 188.609587 181.096051 
L 187.516474 180.774844 
L 186.423361 180.747992 
L 185.330248 180.302024 
L 184.237135 170.389924 
L 183.144022 167.179762 
L 182.050909 160.843029 
L 180.957796 153.388014 
L 179.864683 141.988152 
L 178.77157 126.071463 
L 177.678457 113.787328 
L 176.585344 105.862228 
L 175.492231 95.61229 
L 174.399118 89.926764 
L 173.306006 88.840255 
L 172.212893 90.46 
L 171.11978 91.231642 
L 170.026667 85.135457 
L 168.933554 88.110762 
L 167.840441 95.310613 
L 166.747328 103.613515 
L 165.654215 119.346286 
L 164.561102 140.276194 
L 163.467989 169.160576 
L 162.374876 183.441014 
L 161.281763 186.102011 
L 160.18865 186.318667 
L 159.095537 188.580614 
L 158.002424 191.417687 
L 156.909311 196.750534 
L 155.816198 198.373268 
L 154.723085 199.881296 
L 153.629972 200.828415 
L 152.53686 201.249695 
L 151.443747 201.766204 
L 150.350634 201.885539 
L 149.257521 201.611961 
L 148.164408 201.541028 
L 147.071295 201.718098 
L 145.978182 201.282705 
L 144.885069 201.182161 
L 143.791956 201.048717 
L 142.698843 200.879948 
L 141.60573 200.932302 
L 140.512617 200.830144 
L 139.419504 200.742947 
L 138.326391 200.962706 
L 137.233278 201.408032 
L 136.140165 201.599652 
L 135.047052 201.628507 
L 133.953939 201.293377 
L 132.860826 201.432851 
L 131.767713 201.510397 
L 130.674601 201.463816 
L 129.581488 201.460399 
L 128.488375 201.598388 
L 127.395262 201.746598 
L 126.302149 201.709812 
L 125.209036 200.812588 
L 124.115923 199.071325 
L 123.02281 197.462592 
L 121.929697 196.997055 
L 120.836584 194.338946 
L 119.743471 185.850525 
L 118.650358 180.533787 
L 117.557245 165.879784 
L 116.464132 150.644512 
L 115.371019 150.608036 
L 114.277906 150.294761 
L 113.184793 144.396401 
L 112.09168 140.592809 
L 110.998567 148.706653 
L 109.905455 154.072204 
L 108.812342 135.908372 
L 107.719229 119.884888 
L 106.626116 114.462043 
L 105.533003 105.657655 
L 104.43989 99.414692 
L 103.346777 90.837941 
L 102.253664 87.264632 
L 101.160551 86.24656 
L 100.067438 79.421972 
L 98.974325 75.407979 
L 97.881212 75.084226 
L 96.788099 77.819197 
L 95.694986 79.753331 
L 94.601873 81.819464 
L 93.50876 92.449458 
L 92.415647 107.006058 
L 91.322534 112.083734 
L 90.229421 124.1748 
L 89.136309 147.374988 
L 88.043196 173.521159 
L 86.950083 193.318802 
L 85.85697 198.729697 
L 84.763857 201.871778 
L 83.670744 201.715261 
L 82.577631 201.875825 
L 81.484518 201.174407 
L 80.391405 201.015199 
L 79.298292 200.631848 
L 78.205179 200.494745 
L 77.112066 200.506507 
L 76.018953 200.497083 
L 74.92584 200.489626 
L 73.832727 200.493587 
z
" style="fill:#008000;fill-opacity:0.4;"/>
   </g>
   <g id="matplotlib.axis_1">
    <g id="xtick_1">
     <g id="line2d_1">
      <defs>
       <path d="M 0 0 
L 0 3.5 
" id="m773a0b911f" style="stroke:#000000;stroke-width:0.8;"/>
      </defs>
      <g>
       <use style="stroke:#000000;stroke-width:0.8;" x="73.832727" xlink:href="#m773a0b911f" y="307.584"/>
      </g>
     </g>
     <g id="text_1">
      <!-- 0.0 -->
      <defs>
       <path d="M 31.78125 66.40625 
Q 24.171875 66.40625 20.328125 58.90625 
Q 16.5 51.421875 16.5 36.375 
Q 16.5 21.390625 20.328125 13.890625 
Q 24.171875 6.390625 31.78125 6.390625 
Q 39.453125 6.390625 43.28125 13.890625 
Q 47.125 21.390625 47.125 36.375 
Q 47.125 51.421875 43.28125 58.90625 
Q 39.453125 66.40625 31.78125 66.40625 
z
M 31.78125 74.21875 
Q 44.046875 74.21875 50.515625 64.515625 
Q 56.984375 54.828125 56.984375 36.375 
Q 56.984375 17.96875 50.515625 8.265625 
Q 44.046875 -1.421875 31.78125 -1.421875 
Q 19.53125 -1.421875 13.0625 8.265625 
Q 6.59375 17.96875 6.59375 36.375 
Q 6.59375 54.828125 13.0625 64.515625 
Q 19.53125 74.21875 31.78125 74.21875 
z
" id="DejaVuSans-30"/>
       <path d="M 10.6875 12.40625 
L 21 12.40625 
L 21 0 
L 10.6875 0 
z
" id="DejaVuSans-2e"/>
      </defs>
      <g transform="translate(65.881165 322.182437)scale(0.1 -0.1)">
       <use xlink:href="#DejaVuSans-30"/>
       <use x="63.623047" xlink:href="#DejaVuSans-2e"/>
       <use x="95.410156" xlink:href="#DejaVuSans-30"/>
      </g>
     </g>
    </g>
    <g id="xtick_2">
     <g id="line2d_2">
      <g>
       <use style="stroke:#000000;stroke-width:0.8;" x="138.763636" xlink:href="#m773a0b911f" y="307.584"/>
      </g>
     </g>
     <g id="text_2">
      <!-- 0.2 -->
      <defs>
       <path d="M 19.1875 8.296875 
L 53.609375 8.296875 
L 53.609375 0 
L 7.328125 0 
L 7.328125 8.296875 
Q 12.9375 14.109375 22.625 23.890625 
Q 32.328125 33.6875 34.8125 36.53125 
Q 39.546875 41.84375 41.421875 45.53125 
Q 43.3125 49.21875 43.3125 52.78125 
Q 43.3125 58.59375 39.234375 62.25 
Q 35.15625 65.921875 28.609375 65.921875 
Q 23.96875 65.921875 18.8125 64.3125 
Q 13.671875 62.703125 7.8125 59.421875 
L 7.8125 69.390625 
Q 13.765625 71.78125 18.9375 73 
Q 24.125 74.21875 28.421875 74.21875 
Q 39.75 74.21875 46.484375 68.546875 
Q 53.21875 62.890625 53.21875 53.421875 
Q 53.21875 48.921875 51.53125 44.890625 
Q 49.859375 40.875 45.40625 35.40625 
Q 44.1875 33.984375 37.640625 27.21875 
Q 31.109375 20.453125 19.1875 8.296875 
z
" id="DejaVuSans-32"/>
      </defs>
      <g transform="translate(130.812074 322.182437)scale(0.1 -0.1)">
       <use xlink:href="#DejaVuSans-30"/>
       <use x="63.623047" xlink:href="#DejaVuSans-2e"/>
       <use x="95.410156" xlink:href="#DejaVuSans-32"/>
      </g>
     </g>
    </g>
    <g id="xtick_3">
     <g id="line2d_3">
      <g>
       <use style="stroke:#000000;stroke-width:0.8;" x="203.694545" xlink:href="#m773a0b911f" y="307.584"/>
      </g>
     </g>
     <g id="text_3">
      <!-- 0.4 -->
      <defs>
       <path d="M 37.796875 64.3125 
L 12.890625 25.390625 
L 37.796875 25.390625 
z
M 35.203125 72.90625 
L 47.609375 72.90625 
L 47.609375 25.390625 
L 58.015625 25.390625 
L 58.015625 17.1875 
L 47.609375 17.1875 
L 47.609375 0 
L 37.796875 0 
L 37.796875 17.1875 
L 4.890625 17.1875 
L 4.890625 26.703125 
z
" id="DejaVuSans-34"/>
      </defs>
      <g transform="translate(195.742983 322.182437)scale(0.1 -0.1)">
       <use xlink:href="#DejaVuSans-30"/>
       <use x="63.623047" xlink:href="#DejaVuSans-2e"/>
       <use x="95.410156" xlink:href="#DejaVuSans-34"/>
      </g>
     </g>
    </g>
    <g id="xtick_4">
     <g id="line2d_4">
      <g>
       <use style="stroke:#000000;stroke-width:0.8;" x="268.625455" xlink:href="#m773a0b911f" y="307.584"/>
      </g>
     </g>
     <g id="text_4">
      <!-- 0.6 -->
      <defs>
       <path d="M 33.015625 40.375 
Q 26.375 40.375 22.484375 35.828125 
Q 18.609375 31.296875 18.609375 23.390625 
Q 18.609375 15.53125 22.484375 10.953125 
Q 26.375 6.390625 33.015625 6.390625 
Q 39.65625 6.390625 43.53125 10.953125 
Q 47.40625 15.53125 47.40625 23.390625 
Q 47.40625 31.296875 43.53125 35.828125 
Q 39.65625 40.375 33.015625 40.375 
z
M 52.59375 71.296875 
L 52.59375 62.3125 
Q 48.875 64.0625 45.09375 64.984375 
Q 41.3125 65.921875 37.59375 65.921875 
Q 27.828125 65.921875 22.671875 59.328125 
Q 17.53125 52.734375 16.796875 39.40625 
Q 19.671875 43.65625 24.015625 45.921875 
Q 28.375 48.1875 33.59375 48.1875 
Q 44.578125 48.1875 50.953125 41.515625 
Q 57.328125 34.859375 57.328125 23.390625 
Q 57.328125 12.15625 50.6875 5.359375 
Q 44.046875 -1.421875 33.015625 -1.421875 
Q 20.359375 -1.421875 13.671875 8.265625 
Q 6.984375 17.96875 6.984375 36.375 
Q 6.984375 53.65625 15.1875 63.9375 
Q 23.390625 74.21875 37.203125 74.21875 
Q 40.921875 74.21875 44.703125 73.484375 
Q 48.484375 72.75 52.59375 71.296875 
z
" id="DejaVuSans-36"/>
      </defs>
      <g transform="translate(260.673892 322.182437)scale(0.1 -0.1)">
       <use xlink:href="#DejaVuSans-30"/>
       <use x="63.623047" xlink:href="#DejaVuSans-2e"/>
       <use x="95.410156" xlink:href="#DejaVuSans-36"/>
      </g>
     </g>
    </g>
    <g id="xtick_5">
     <g id="line2d_5">
      <g>
       <use style="stroke:#000000;stroke-width:0.8;" x="333.556364" xlink:href="#m773a0b911f" y="307.584"/>
      </g>
     </g>
     <g id="text_5">
      <!-- 0.8 -->
      <defs>
       <path d="M 31.78125 34.625 
Q 24.75 34.625 20.71875 30.859375 
Q 16.703125 27.09375 16.703125 20.515625 
Q 16.703125 13.921875 20.71875 10.15625 
Q 24.75 6.390625 31.78125 6.390625 
Q 38.8125 6.390625 42.859375 10.171875 
Q 46.921875 13.96875 46.921875 20.515625 
Q 46.921875 27.09375 42.890625 30.859375 
Q 38.875 34.625 31.78125 34.625 
z
M 21.921875 38.8125 
Q 15.578125 40.375 12.03125 44.71875 
Q 8.5 49.078125 8.5 55.328125 
Q 8.5 64.0625 14.71875 69.140625 
Q 20.953125 74.21875 31.78125 74.21875 
Q 42.671875 74.21875 48.875 69.140625 
Q 55.078125 64.0625 55.078125 55.328125 
Q 55.078125 49.078125 51.53125 44.71875 
Q 48 40.375 41.703125 38.8125 
Q 48.828125 37.15625 52.796875 32.3125 
Q 56.78125 27.484375 56.78125 20.515625 
Q 56.78125 9.90625 50.3125 4.234375 
Q 43.84375 -1.421875 31.78125 -1.421875 
Q 19.734375 -1.421875 13.25 4.234375 
Q 6.78125 9.90625 6.78125 20.515625 
Q 6.78125 27.484375 10.78125 32.3125 
Q 14.796875 37.15625 21.921875 38.8125 
z
M 18.3125 54.390625 
Q 18.3125 48.734375 21.84375 45.5625 
Q 25.390625 42.390625 31.78125 42.390625 
Q 38.140625 42.390625 41.71875 45.5625 
Q 45.3125 48.734375 45.3125 54.390625 
Q 45.3125 60.0625 41.71875 63.234375 
Q 38.140625 66.40625 31.78125 66.40625 
Q 25.390625 66.40625 21.84375 63.234375 
Q 18.3125 60.0625 18.3125 54.390625 
z
" id="DejaVuSans-38"/>
      </defs>
      <g transform="translate(325.604801 322.182437)scale(0.1 -0.1)">
       <use xlink:href="#DejaVuSans-30"/>
       <use x="63.623047" xlink:href="#DejaVuSans-2e"/>
       <use x="95.410156" xlink:href="#DejaVuSans-38"/>
      </g>
     </g>
    </g>
    <g id="xtick_6">
     <g id="line2d_6">
      <g>
       <use style="stroke:#000000;stroke-width:0.8;" x="398.487273" xlink:href="#m773a0b911f" y="307.584"/>
      </g>
     </g>
     <g id="text_6">
      <!-- 1.0 -->
      <defs>
       <path d="M 12.40625 8.296875 
L 28.515625 8.296875 
L 28.515625 63.921875 
L 10.984375 60.40625 
L 10.984375 69.390625 
L 28.421875 72.90625 
L 38.28125 72.90625 
L 38.28125 8.296875 
L 54.390625 8.296875 
L 54.390625 0 
L 12.40625 0 
z
" id="DejaVuSans-31"/>
      </defs>
      <g transform="translate(390.53571 322.182437)scale(0.1 -0.1)">
       <use xlink:href="#DejaVuSans-31"/>
       <use x="63.623047" xlink:href="#DejaVuSans-2e"/>
       <use x="95.410156" xlink:href="#DejaVuSans-30"/>
      </g>
     </g>
    </g>
   </g>
   <g id="matplotlib.axis_2">
    <g id="ytick_1">
     <g id="line2d_7">
      <defs>
       <path d="M 0 0 
L -3.5 0 
" id="mce703878fd" style="stroke:#000000;stroke-width:0.8;"/>
      </defs>
      <g>
       <use style="stroke:#000000;stroke-width:0.8;" x="57.6" xlink:href="#mce703878fd" y="299.17887"/>
      </g>
     </g>
     <g id="text_7">
      <!-- 0.0 -->
      <g transform="translate(34.696875 302.978089)scale(0.1 -0.1)">
       <use xlink:href="#DejaVuSans-30"/>
       <use x="63.623047" xlink:href="#DejaVuSans-2e"/>
       <use x="95.410156" xlink:href="#DejaVuSans-30"/>
      </g>
     </g>
    </g>
    <g id="ytick_2">
     <g id="line2d_8">
      <g>
       <use style="stroke:#000000;stroke-width:0.8;" x="57.6" xlink:href="#mce703878fd" y="249.553394"/>
      </g>
     </g>
     <g id="text_8">
      <!-- 0.2 -->
      <g transform="translate(34.696875 253.352613)scale(0.1 -0.1)">
       <use xlink:href="#DejaVuSans-30"/>
       <use x="63.623047" xlink:href="#DejaVuSans-2e"/>
       <use x="95.410156" xlink:href="#DejaVuSans-32"/>
      </g>
     </g>
    </g>
    <g id="ytick_3">
     <g id="line2d_9">
      <g>
       <use style="stroke:#000000;stroke-width:0.8;" x="57.6" xlink:href="#mce703878fd" y="199.927919"/>
      </g>
     </g>
     <g id="text_9">
      <!-- 0.4 -->
      <g transform="translate(34.696875 203.727138)scale(0.1 -0.1)">
       <use xlink:href="#DejaVuSans-30"/>
       <use x="63.623047" xlink:href="#DejaVuSans-2e"/>
       <use x="95.410156" xlink:href="#DejaVuSans-34"/>
      </g>
     </g>
    </g>
    <g id="ytick_4">
     <g id="line2d_10">
      <g>
       <use style="stroke:#000000;stroke-width:0.8;" x="57.6" xlink:href="#mce703878fd" y="150.302443"/>
      </g>
     </g>
     <g id="text_10">
      <!-- 0.6 -->
      <g transform="translate(34.696875 154.101662)scale(0.1 -0.1)">
       <use xlink:href="#DejaVuSans-30"/>
       <use x="63.623047" xlink:href="#DejaVuSans-2e"/>
       <use x="95.410156" xlink:href="#DejaVuSans-36"/>
      </g>
     </g>
    </g>
    <g id="ytick_5">
     <g id="line2d_11">
      <g>
       <use style="stroke:#000000;stroke-width:0.8;" x="57.6" xlink:href="#mce703878fd" y="100.676968"/>
      </g>
     </g>
     <g id="text_11">
      <!-- 0.8 -->
      <g transform="translate(34.696875 104.476186)scale(0.1 -0.1)">
       <use xlink:href="#DejaVuSans-30"/>
       <use x="63.623047" xlink:href="#DejaVuSans-2e"/>
       <use x="95.410156" xlink:href="#DejaVuSans-38"/>
      </g>
     </g>
    </g>
    <g id="ytick_6">
     <g id="line2d_12">
      <g>
       <use style="stroke:#000000;stroke-width:0.8;" x="57.6" xlink:href="#mce703878fd" y="51.051492"/>
      </g>
     </g>
     <g id="text_12">
      <!-- 1.0 -->
      <g transform="translate(34.696875 54.850711)scale(0.1 -0.1)">
       <use xlink:href="#DejaVuSans-31"/>
       <use x="63.623047" xlink:href="#DejaVuSans-2e"/>
       <use x="95.410156" xlink:href="#DejaVuSans-30"/>
      </g>
     </g>
    </g>
   </g>
   <g id="line2d_13">
    <path clip-path="url(#p0fb8ec0ce0)" d="M 73.832727 286.596355 
L 74.92584 286.764114 
L 76.018953 286.093054 
L 77.112066 285.086451 
L 78.205179 278.711289 
L 79.298292 276.194781 
L 80.391405 269.316244 
L 81.484518 258.411542 
L 82.577631 245.661268 
L 83.670744 224.522553 
L 84.763857 206.739263 
L 85.85697 186.607201 
L 88.043196 142.65218 
L 89.136309 124.868891 
L 90.229421 119.332673 
L 91.322534 104.40136 
L 92.415647 76.719773 
L 93.50876 67.324926 
L 94.601873 65.143887 
L 95.694986 54.574653 
L 96.788099 53.568 
L 97.881212 61.78846 
L 98.974325 79.571997 
L 100.067438 85.779152 
L 101.160551 87.456989 
L 102.253664 103.394707 
L 105.533003 130.405357 
L 106.626116 142.484446 
L 107.719229 161.609856 
L 108.812342 163.95863 
L 109.905455 152.047275 
L 110.998567 154.396049 
L 112.09168 159.932267 
L 113.184793 161.945572 
L 114.277906 159.932267 
L 115.371019 168.991645 
L 116.464132 184.761877 
L 117.557245 189.962627 
L 118.650358 202.712901 
L 119.743471 213.953319 
L 120.836584 215.463174 
L 121.929697 220.328456 
L 124.115923 236.433907 
L 125.209036 238.614947 
L 126.302149 241.131455 
L 127.395262 250.52655 
L 128.488375 256.398236 
L 129.581488 259.250212 
L 130.674601 257.069421 
L 131.767713 260.92805 
L 132.860826 265.289881 
L 135.047052 269.819694 
L 137.233278 280.892279 
L 138.326391 280.892279 
L 139.419504 278.54353 
L 140.512617 279.550133 
L 141.60573 277.704686 
L 142.698843 275.188178 
L 143.791956 274.684901 
L 144.885069 269.819694 
L 147.071295 251.532955 
L 148.164408 247.674326 
L 149.257521 242.64131 
L 150.350634 234.588584 
L 151.443747 229.555568 
L 152.53686 225.361471 
L 153.629972 220.49619 
L 154.723085 214.288787 
L 155.816198 200.867329 
L 156.909311 196.337764 
L 158.002424 193.150071 
L 159.095537 192.143419 
L 160.18865 190.298095 
L 161.281763 182.077387 
L 164.561102 115.809512 
L 167.840441 77.89416 
L 168.933554 90.141231 
L 170.026667 93.496658 
L 171.11978 88.79911 
L 172.212893 89.470047 
L 173.306006 96.1809 
L 174.399118 112.622068 
L 175.492231 122.352383 
L 176.585344 133.257333 
L 177.678457 151.543825 
L 178.77157 160.435469 
L 179.864683 167.984993 
L 180.957796 174.695846 
L 182.050909 176.205701 
L 183.144022 184.929611 
L 184.237135 186.607201 
L 185.330248 187.110403 
L 186.423361 186.607201 
L 187.516474 187.781587 
L 188.609587 191.304748 
L 189.7027 191.640216 
L 190.795813 194.659926 
L 191.888926 197.176434 
L 194.075152 200.364127 
L 195.168264 205.564877 
L 196.261377 206.571529 
L 197.35449 213.785585 
L 198.447603 219.992739 
L 199.540716 224.522553 
L 200.633829 223.683634 
L 201.726942 225.361471 
L 203.913168 238.950415 
L 205.006281 244.319147 
L 206.099394 248.680979 
L 207.192507 256.230502 
L 208.28562 262.270171 
L 209.378733 264.45121 
L 210.471846 265.625349 
L 211.564959 268.309839 
L 213.751185 277.536927 
L 214.844298 281.731099 
L 215.93741 286.596355 
L 217.030523 290.119442 
L 218.123636 292.803733 
L 219.216749 293.810336 
L 220.309862 293.139251 
L 221.402975 292.635949 
L 222.496088 292.300432 
L 223.589201 289.951683 
L 224.682314 288.777321 
L 225.775427 283.744305 
L 226.86854 279.717892 
L 229.054766 263.109089 
L 230.147879 255.559566 
L 231.240992 244.486881 
L 232.334105 238.782681 
L 233.427218 229.2201 
L 234.520331 217.811948 
L 235.613444 209.255771 
L 239.985895 160.603451 
L 242.172121 142.819914 
L 243.265234 141.813509 
L 244.358347 141.645775 
L 245.45146 138.961285 
L 246.544573 134.767188 
L 247.637686 138.961285 
L 248.730799 139.464736 
L 249.823912 141.981244 
L 250.917025 140.639123 
L 252.010138 147.181993 
L 253.103251 155.234719 
L 254.196364 159.764533 
L 255.289477 168.656177 
L 256.38259 170.501501 
L 257.475702 182.580838 
L 259.661928 187.278385 
L 262.941267 202.712901 
L 264.03438 200.867329 
L 265.127493 206.403795 
L 266.220606 216.13411 
L 267.313719 223.5159 
L 268.406832 225.361471 
L 269.499945 224.690287 
L 271.686171 226.703592 
L 272.779284 222.006045 
L 273.872397 220.999392 
L 274.96551 219.489537 
L 276.058623 222.173779 
L 277.151736 227.03906 
L 278.244848 229.891037 
L 279.337961 236.769624 
L 280.431074 240.124802 
L 281.524187 247.003389 
L 282.6173 250.52655 
L 283.710413 253.54626 
L 285.896639 263.94776 
L 286.989752 267.806389 
L 288.082865 270.994081 
L 289.175978 278.879073 
L 290.269091 284.583149 
L 291.362204 287.938476 
L 292.455317 290.119442 
L 293.54843 290.287225 
L 294.641543 288.609562 
L 295.734656 283.744305 
L 296.827769 278.040229 
L 299.013994 262.941107 
L 300.107107 252.371873 
L 302.293333 226.703592 
L 303.386446 219.657271 
L 304.479559 203.048369 
L 305.572672 190.298095 
L 306.665785 182.748572 
L 307.758898 177.547822 
L 308.852011 168.991645 
L 309.945124 142.148978 
L 311.038237 121.849181 
L 314.317576 67.828129 
L 315.410689 63.801766 
L 316.503802 64.976152 
L 317.596915 72.022474 
L 318.690028 82.256239 
L 319.78314 97.187304 
L 320.876253 109.769844 
L 321.969366 114.131923 
L 323.062479 126.378994 
L 324.155592 134.599454 
L 325.248705 134.263986 
L 326.341818 129.734172 
L 327.434931 128.224317 
L 328.528044 128.72752 
L 329.621157 130.069641 
L 330.71427 144.665485 
L 331.807383 156.409106 
L 333.993609 185.600548 
L 335.086722 194.659926 
L 336.179835 208.081384 
L 337.272948 211.940013 
L 338.366061 212.778932 
L 339.459174 216.973029 
L 340.552287 222.844963 
L 341.645399 233.749665 
L 342.738512 238.614947 
L 343.831625 244.486881 
L 344.924738 256.56597 
L 346.017851 264.786678 
L 347.110964 269.316244 
L 348.204077 271.161815 
L 349.29719 273.846057 
L 350.390303 278.207988 
L 351.483416 279.885676 
L 352.576529 279.046832 
L 353.669642 280.221194 
L 354.762755 279.382374 
L 355.855868 281.395581 
L 356.948981 277.201384 
L 358.042094 277.87247 
L 359.135207 277.536927 
L 360.22832 277.87247 
L 361.321433 281.395581 
L 362.414545 283.241003 
L 363.507658 287.099657 
L 364.600771 288.94508 
L 365.693884 291.293828 
L 366.786997 293.307035 
L 367.88011 294.145854 
L 368.973223 295.320241 
L 370.066336 295.488 
L 372.252562 292.132648 
L 373.345675 289.61614 
L 376.625014 272.67167 
L 377.718127 265.961065 
L 378.81124 252.875076 
L 379.904353 246.667921 
L 380.997466 241.466923 
L 382.090579 232.910995 
L 383.183691 226.032408 
L 384.276804 215.798642 
L 385.369917 215.463174 
L 386.46303 209.255771 
L 387.556143 205.732611 
L 388.649256 199.357474 
L 389.742369 194.492192 
L 390.835482 201.203045 
L 391.928595 202.20945 
L 393.021708 198.854272 
L 394.114821 198.518555 
L 395.207934 204.39049 
L 396.301047 207.745916 
L 397.39416 200.364127 
L 398.487273 198.854272 
L 398.487273 198.854272 
" style="fill:none;stroke:#1f77b4;stroke-linecap:square;stroke-width:1.5;"/>
   </g>
   <g id="line2d_14">
    <path clip-path="url(#p0fb8ec0ce0)" d="M 73.832727 249.420411 
L 74.92584 249.900913 
L 76.018953 250.234738 
L 78.205179 250.044037 
L 79.298292 249.231275 
L 80.391405 247.138432 
L 81.484518 246.216488 
L 82.577631 242.492001 
L 83.670744 237.738195 
L 84.763857 229.748156 
L 86.950083 203.541665 
L 90.229421 153.268666 
L 91.322534 144.196763 
L 92.415647 140.500123 
L 93.50876 129.857558 
L 94.601873 120.403762 
L 95.694986 118.473689 
L 96.788099 116.838054 
L 97.881212 114.263734 
L 98.974325 114.514652 
L 100.067438 118.037998 
L 101.160551 123.953956 
L 102.253664 125.04076 
L 103.346777 127.720571 
L 104.43989 134.573427 
L 105.533003 139.274851 
L 106.626116 145.679294 
L 107.719229 149.612943 
L 108.812342 160.39183 
L 109.905455 172.589013 
L 110.998567 169.743628 
L 112.09168 163.82696 
L 113.184793 166.39891 
L 114.277906 170.260274 
L 115.371019 170.672316 
L 116.464132 170.451545 
L 118.650358 190.750361 
L 119.743471 195.357857 
L 120.836584 206.026204 
L 121.929697 212.641807 
L 123.02281 213.612971 
L 124.115923 217.845801 
L 125.209036 223.495536 
L 126.302149 227.412024 
L 127.395262 228.664662 
L 128.488375 230.873957 
L 129.581488 235.848718 
L 130.674601 238.422491 
L 131.767713 238.844539 
L 132.860826 238.70795 
L 135.047052 242.346802 
L 136.140165 243.254277 
L 137.233278 244.343929 
L 138.326391 246.763506 
L 139.419504 248.307708 
L 140.512617 248.043555 
L 141.60573 247.378099 
L 142.698843 247.692177 
L 144.885069 246.029719 
L 145.978182 245.602224 
L 147.071295 243.192225 
L 149.257521 234.909135 
L 150.350634 232.929637 
L 151.443747 229.797039 
L 152.53686 224.893547 
L 154.723085 219.450945 
L 155.816198 215.502155 
L 156.909311 209.807819 
L 158.002424 201.22667 
L 159.095537 197.858093 
L 160.18865 195.64898 
L 161.281763 195.553994 
L 162.374876 193.113661 
L 163.467989 183.410602 
L 164.561102 164.28323 
L 165.654215 149.745153 
L 166.747328 138.062596 
L 168.933554 126.09702 
L 170.026667 123.0689 
L 171.11978 128.18917 
L 172.212893 127.798774 
L 173.306006 126.398226 
L 174.399118 127.191745 
L 175.492231 131.593094 
L 176.585344 139.415974 
L 177.678457 145.215352 
L 178.77157 153.732459 
L 179.864683 164.686261 
L 180.957796 172.121367 
L 182.050909 177.292411 
L 183.144022 181.608934 
L 184.237135 183.673386 
L 185.330248 190.560153 
L 186.423361 190.931911 
L 187.516474 190.945801 
L 188.609587 191.127072 
L 189.7027 192.458111 
L 190.795813 194.950375 
L 191.888926 194.831926 
L 192.982039 198.438374 
L 194.075152 199.280139 
L 195.168264 200.845615 
L 196.261377 203.011642 
L 198.447603 207.85378 
L 199.540716 213.033277 
L 200.633829 217.183664 
L 201.726942 219.467537 
L 202.820055 218.741468 
L 203.913168 221.068367 
L 206.099394 229.268294 
L 207.192507 232.183899 
L 208.28562 234.776291 
L 209.378733 238.559883 
L 210.471846 241.115565 
L 212.658072 242.362117 
L 213.751185 243.815783 
L 215.93741 247.4159 
L 217.030523 248.835975 
L 218.123636 250.498542 
L 219.216749 251.527461 
L 220.309862 252.216933 
L 221.402975 252.432055 
L 222.496088 252.186147 
L 223.589201 252.121985 
L 224.682314 251.818517 
L 226.86854 250.563963 
L 229.054766 247.235993 
L 231.240992 240.296522 
L 232.334105 236.274842 
L 233.427218 230.98668 
L 234.520331 227.237293 
L 235.613444 220.92663 
L 236.706556 213.082069 
L 237.799669 206.693605 
L 242.172121 168.048147 
L 243.265234 161.620204 
L 244.358347 156.602644 
L 245.45146 156.07228 
L 246.544573 156.071229 
L 247.637686 153.248196 
L 248.730799 151.938176 
L 249.823912 154.843136 
L 250.917025 154.731163 
L 252.010138 156.597171 
L 253.103251 155.949017 
L 255.289477 166.847231 
L 256.38259 171.27902 
L 257.475702 176.849642 
L 258.568815 179.819432 
L 259.661928 188.672353 
L 260.755041 189.778862 
L 261.848154 192.314038 
L 262.941267 196.199714 
L 264.03438 200.725085 
L 265.127493 203.157005 
L 266.220606 202.782628 
L 267.313719 208.499496 
L 268.406832 214.930511 
L 269.499945 219.053255 
L 270.593058 219.767537 
L 271.686171 219.738275 
L 272.779284 220.618412 
L 273.872397 220.035636 
L 274.96551 217.378562 
L 276.058623 216.681934 
L 277.151736 216.45369 
L 278.244848 218.622374 
L 280.431074 224.043824 
L 281.524187 227.706375 
L 282.6173 230.125386 
L 283.710413 233.644826 
L 284.803526 235.221259 
L 285.896639 237.02681 
L 288.082865 241.991298 
L 289.175978 243.387797 
L 290.269091 244.997267 
L 291.362204 248.089188 
L 292.455317 249.735898 
L 293.54843 250.81433 
L 294.641543 251.367681 
L 295.734656 251.374461 
L 296.827769 250.461297 
L 297.920882 248.895024 
L 299.013994 246.550935 
L 300.107107 243.569724 
L 301.20022 240.044082 
L 302.293333 234.298709 
L 304.479559 219.34854 
L 305.572672 214.178113 
L 306.665785 201.109892 
L 307.758898 191.684145 
L 308.852011 187.303836 
L 309.945124 182.129535 
L 311.038237 172.382157 
L 312.13135 151.918202 
L 314.317576 131.480823 
L 315.410689 122.930168 
L 316.503802 118.188548 
L 317.596915 117.359068 
L 318.690028 117.984522 
L 319.78314 120.981618 
L 320.876253 125.271255 
L 321.969366 131.872713 
L 323.062479 137.387057 
L 324.155592 140.02795 
L 325.248705 148.204922 
L 326.341818 150.884557 
L 327.434931 150.718174 
L 328.528044 147.678754 
L 329.621157 147.199538 
L 330.71427 147.570443 
L 331.807383 150.266201 
L 332.900496 160.830749 
L 333.993609 169.321109 
L 335.086722 181.665824 
L 336.179835 191.682513 
L 337.272948 199.823689 
L 338.366061 208.802801 
L 339.459174 210.715426 
L 340.552287 211.791289 
L 341.645399 215.077549 
L 342.738512 219.760835 
L 343.831625 226.489422 
L 344.924738 229.027314 
L 346.017851 232.94671 
L 347.110964 239.114333 
L 348.204077 242.291246 
L 349.29719 244.015514 
L 350.390303 244.646206 
L 352.576529 247.472294 
L 353.669642 247.840756 
L 354.762755 247.643663 
L 355.855868 247.881794 
L 358.042094 248.091297 
L 359.135207 246.852055 
L 360.22832 247.074978 
L 361.321433 247.060492 
L 362.414545 247.457683 
L 365.693884 250.495624 
L 368.973223 252.34664 
L 370.066336 252.683367 
L 371.159449 252.858005 
L 372.252562 252.885874 
L 374.438788 251.744201 
L 375.531901 250.858893 
L 377.718127 246.992883 
L 378.81124 244.561181 
L 379.904353 240.974104 
L 380.997466 235.408456 
L 383.183691 228.931004 
L 386.46303 213.400277 
L 387.556143 212.013672 
L 388.649256 207.897001 
L 389.742369 205.1079 
L 390.835482 199.287649 
L 391.928595 198.369542 
L 393.021708 202.794545 
L 394.114821 202.581778 
L 395.207934 200.281035 
L 396.301047 201.582789 
L 397.39416 206.090828 
L 398.487273 205.789709 
L 398.487273 205.789709 
" style="fill:none;stroke:#ff7f0e;stroke-linecap:square;stroke-width:1.5;"/>
   </g>
   <g id="line2d_15">
    <path clip-path="url(#p0fb8ec0ce0)" d="M 73.832727 274.827628 
L 76.018953 275.732949 
L 78.205179 275.505383 
L 79.298292 274.482782 
L 80.391405 271.968666 
L 81.484518 270.835818 
L 82.577631 266.025467 
L 83.670744 259.81582 
L 84.763857 248.703529 
L 86.950083 211.909773 
L 88.043196 206.781245 
L 89.136309 207.177588 
L 90.229421 208.21019 
L 91.322534 208.725216 
L 92.415647 208.991031 
L 94.601873 210.66634 
L 95.694986 210.572752 
L 97.881212 210.65268 
L 100.067438 210.374684 
L 101.160551 209.945625 
L 102.253664 209.890022 
L 104.43989 208.953447 
L 105.533003 208.733629 
L 106.626116 208.318962 
L 107.719229 208.36531 
L 108.812342 207.291225 
L 109.905455 206.717695 
L 110.998567 207.08365 
L 112.09168 207.210017 
L 115.371019 206.940176 
L 116.464132 206.922 
L 118.650358 206.404889 
L 119.743471 207.804172 
L 120.836584 215.4668 
L 121.929697 224.929234 
L 123.02281 226.384292 
L 124.115923 232.426882 
L 125.209036 240.617703 
L 126.302149 246.067477 
L 127.395262 247.824404 
L 128.488375 250.940582 
L 129.581488 257.646213 
L 130.674601 260.955446 
L 131.767713 261.358186 
L 132.860826 261.322466 
L 135.047052 266.047523 
L 136.140165 267.184907 
L 137.233278 268.638598 
L 138.326391 271.760353 
L 139.419504 273.445455 
L 140.512617 273.087953 
L 141.60573 272.300319 
L 142.698843 272.677242 
L 144.885069 270.644186 
L 145.978182 270.066819 
L 147.071295 266.976509 
L 149.257521 256.148326 
L 150.350634 253.531486 
L 151.443747 249.203609 
L 152.53686 242.343586 
L 154.723085 234.675792 
L 155.816198 228.778177 
L 156.909311 220.19652 
L 158.002424 209.878783 
L 159.095537 208.301567 
L 160.18865 207.949633 
L 161.281763 207.904395 
L 162.374876 206.461248 
L 163.467989 206.932074 
L 164.561102 207.536612 
L 165.654215 208.581028 
L 166.747328 209.178941 
L 167.840441 209.370863 
L 168.933554 209.969892 
L 170.026667 210.092139 
L 171.11978 209.375864 
L 172.212893 209.594872 
L 173.306006 209.694833 
L 174.399118 209.554299 
L 175.492231 208.957519 
L 177.678457 208.374296 
L 178.77157 207.974605 
L 179.864683 207.104741 
L 180.957796 206.744278 
L 182.050909 206.670652 
L 183.144022 206.729264 
L 186.423361 206.477279 
L 189.7027 206.461045 
L 190.795813 207.931104 
L 191.888926 207.888682 
L 192.982039 208.424988 
L 194.075152 208.690047 
L 195.168264 209.83957 
L 196.261377 211.613323 
L 197.35449 214.260578 
L 198.447603 217.951975 
L 199.540716 225.541764 
L 200.633829 231.585872 
L 201.726942 234.617894 
L 202.820055 233.715121 
L 203.913168 237.091184 
L 205.006281 243.244691 
L 206.099394 248.66628 
L 207.192507 252.64097 
L 208.28562 256.180201 
L 209.378733 261.156593 
L 210.471846 264.473738 
L 212.658072 266.031896 
L 213.751185 268.001107 
L 215.93741 272.478617 
L 217.030523 274.154071 
L 218.123636 276.109079 
L 219.216749 277.259707 
L 220.309862 278.037124 
L 221.402975 278.272876 
L 222.496088 277.986616 
L 223.589201 277.92327 
L 224.682314 277.551347 
L 226.86854 276.074252 
L 229.054766 272.03662 
L 231.240992 263.233903 
L 232.334105 257.844511 
L 233.427218 250.863079 
L 234.520331 245.558315 
L 235.613444 236.60138 
L 236.706556 225.292787 
L 237.799669 215.81626 
L 238.892782 208.06692 
L 239.985895 206.605523 
L 241.079008 206.802478 
L 242.172121 207.205858 
L 243.265234 207.342046 
L 244.358347 207.784352 
L 246.544573 207.831274 
L 247.637686 208.149799 
L 248.730799 208.245861 
L 249.823912 207.940791 
L 250.917025 207.96489 
L 252.010138 207.769636 
L 253.103251 207.828345 
L 254.196364 207.241296 
L 255.289477 207.090199 
L 256.38259 206.824671 
L 257.475702 206.695029 
L 258.568815 206.724478 
L 259.661928 206.434816 
L 261.848154 206.46465 
L 262.941267 207.840982 
L 264.03438 209.58208 
L 265.127493 211.630629 
L 266.220606 211.202284 
L 267.313719 218.933185 
L 268.406832 228.356362 
L 269.499945 234.035586 
L 270.593058 235.03493 
L 271.686171 235.035796 
L 272.779284 236.357121 
L 273.872397 235.457336 
L 274.96551 231.737415 
L 276.058623 230.693728 
L 277.151736 230.597834 
L 278.244848 233.452414 
L 280.431074 241.367285 
L 281.524187 246.496944 
L 282.6173 249.895886 
L 283.710413 254.617121 
L 284.803526 256.753405 
L 285.896639 259.138806 
L 288.082865 265.664246 
L 289.175978 267.378283 
L 290.269091 269.526018 
L 291.362204 273.351825 
L 292.455317 275.189654 
L 293.54843 276.433896 
L 294.641543 277.056383 
L 295.734656 277.058967 
L 296.827769 275.947701 
L 297.920882 274.095594 
L 299.013994 271.18041 
L 300.107107 267.468549 
L 301.20022 262.886242 
L 302.293333 255.119561 
L 304.479559 234.307173 
L 305.572672 226.754156 
L 306.665785 209.997997 
L 307.758898 206.604508 
L 308.852011 206.502796 
L 309.945124 206.824453 
L 311.038237 206.889675 
L 312.13135 208.376642 
L 313.224463 209.038961 
L 314.317576 209.502445 
L 315.410689 210.326762 
L 316.503802 210.612951 
L 319.78314 210.400833 
L 321.969366 208.9839 
L 324.155592 208.704673 
L 325.248705 208.271885 
L 327.434931 208.400413 
L 329.621157 208.44924 
L 331.807383 208.338875 
L 332.900496 207.279244 
L 335.086722 206.565386 
L 336.179835 206.397308 
L 337.272948 209.205942 
L 338.366061 219.276197 
L 339.459174 221.911434 
L 340.552287 223.628973 
L 341.645399 228.577837 
L 342.738512 235.218975 
L 343.831625 244.851949 
L 344.924738 248.31979 
L 346.017851 253.748385 
L 347.110964 262.030284 
L 348.204077 266.031818 
L 349.29719 268.179292 
L 350.390303 268.944394 
L 352.576529 272.482891 
L 353.669642 272.861564 
L 354.762755 272.644974 
L 356.948981 273.080896 
L 358.042094 273.129592 
L 359.135207 271.651066 
L 360.22832 271.921768 
L 361.321433 271.923917 
L 362.414545 272.501766 
L 365.693884 276.050479 
L 368.973223 278.182907 
L 370.066336 278.576575 
L 371.159449 278.75497 
L 372.252562 278.784104 
L 374.438788 277.46306 
L 375.531901 276.422842 
L 377.718127 271.779307 
L 378.81124 268.735154 
L 379.904353 264.053989 
L 380.997466 256.754856 
L 382.090579 252.653216 
L 383.183691 247.964048 
L 386.46303 225.98456 
L 387.556143 223.732215 
L 388.649256 217.582695 
L 389.742369 213.663156 
L 390.835482 208.709979 
L 391.928595 208.396232 
L 393.021708 211.239188 
L 394.114821 210.997215 
L 395.207934 209.497575 
L 396.301047 210.343777 
L 397.39416 215.272223 
L 398.487273 214.558006 
L 398.487273 214.558006 
" style="fill:none;stroke:#2ca02c;stroke-linecap:square;stroke-width:1.5;"/>
   </g>
   <g id="line2d_16">
    <path clip-path="url(#p0fb8ec0ce0)" d="M 73.832727 200.493587 
L 78.205179 200.494745 
L 79.298292 200.631848 
L 80.391405 201.015199 
L 81.484518 201.174407 
L 82.577631 201.875825 
L 83.670744 201.715261 
L 84.763857 201.871778 
L 85.85697 198.729697 
L 86.950083 193.318802 
L 88.043196 173.521159 
L 89.136309 147.374988 
L 90.229421 124.1748 
L 91.322534 112.083734 
L 92.415647 107.006058 
L 93.50876 92.449458 
L 94.601873 81.819464 
L 96.788099 77.819197 
L 97.881212 75.084226 
L 98.974325 75.407979 
L 100.067438 79.421972 
L 101.160551 86.24656 
L 102.253664 87.264632 
L 103.346777 90.837941 
L 104.43989 99.414692 
L 105.533003 105.657655 
L 106.626116 114.462043 
L 107.719229 119.884888 
L 108.812342 135.908372 
L 109.905455 154.072204 
L 110.998567 148.706653 
L 112.09168 140.592809 
L 113.184793 144.396401 
L 114.277906 150.294761 
L 115.371019 150.608036 
L 116.464132 150.644512 
L 118.650358 180.533787 
L 119.743471 185.850525 
L 120.836584 194.338946 
L 121.929697 196.997055 
L 123.02281 197.462592 
L 125.209036 200.812588 
L 126.302149 201.709812 
L 127.395262 201.746598 
L 129.581488 201.460399 
L 132.860826 201.432851 
L 133.953939 201.293377 
L 135.047052 201.628507 
L 136.140165 201.599652 
L 137.233278 201.408032 
L 138.326391 200.962706 
L 139.419504 200.742947 
L 141.60573 200.932302 
L 142.698843 200.879948 
L 145.978182 201.282705 
L 147.071295 201.718098 
L 148.164408 201.541028 
L 149.257521 201.611961 
L 150.350634 201.885539 
L 151.443747 201.766204 
L 153.629972 200.828415 
L 154.723085 199.881296 
L 156.909311 196.750534 
L 158.002424 191.417687 
L 159.095537 188.580614 
L 160.18865 186.318667 
L 161.281763 186.102011 
L 162.374876 183.441014 
L 163.467989 169.160576 
L 164.561102 140.276194 
L 165.654215 119.346286 
L 166.747328 103.613515 
L 167.840441 95.310613 
L 168.933554 88.110762 
L 170.026667 85.135457 
L 171.11978 91.231642 
L 172.212893 90.46 
L 173.306006 88.840255 
L 174.399118 89.926764 
L 175.492231 95.61229 
L 176.585344 105.862228 
L 177.678457 113.787328 
L 178.77157 126.071463 
L 179.864683 141.988152 
L 180.957796 153.388014 
L 182.050909 160.843029 
L 183.144022 167.179762 
L 184.237135 170.389924 
L 185.330248 180.302024 
L 186.423361 180.747992 
L 187.516474 180.774844 
L 188.609587 181.096051 
L 189.7027 182.825914 
L 190.795813 185.483346 
L 191.888926 185.385707 
L 192.982039 188.994588 
L 194.075152 189.926183 
L 195.168264 191.20774 
L 197.35449 194.360451 
L 198.447603 195.560435 
L 200.633829 198.794932 
L 201.726942 199.862255 
L 202.820055 199.487504 
L 203.913168 200.448623 
L 205.006281 201.193663 
L 206.099394 201.683436 
L 207.192507 201.885452 
L 208.28562 201.512246 
L 210.471846 201.276156 
L 212.658072 201.654973 
L 213.751185 201.480731 
L 217.030523 200.605676 
L 221.402975 200.124158 
L 226.86854 200.534414 
L 227.961653 200.674069 
L 229.054766 201.032023 
L 230.147879 201.630923 
L 231.240992 201.379392 
L 234.520331 201.833901 
L 235.613444 200.635081 
L 236.706556 197.304145 
L 237.799669 194.792363 
L 238.892782 187.859186 
L 239.985895 175.423881 
L 242.172121 146.364916 
L 243.265234 137.032292 
L 244.358347 129.795756 
L 245.45146 129.019629 
L 246.544573 129.038139 
L 247.637686 124.67835 
L 248.730799 123.13523 
L 249.823912 127.340246 
L 250.917025 127.094805 
L 252.010138 129.861532 
L 253.103251 128.94963 
L 255.289477 145.019204 
L 256.38259 152.078474 
L 257.475702 160.240932 
L 258.568815 164.805974 
L 259.661928 177.781999 
L 260.755041 179.294231 
L 261.848154 182.593574 
L 264.03438 191.135219 
L 265.127493 192.968993 
L 266.220606 192.619995 
L 267.313719 195.899561 
L 268.406832 198.073087 
L 269.499945 199.631119 
L 270.593058 200.032348 
L 271.686171 199.996884 
L 272.779284 200.383144 
L 273.872397 200.198489 
L 274.96551 198.948115 
L 277.151736 198.660357 
L 278.244848 199.421703 
L 279.337961 200.541464 
L 280.431074 200.930556 
L 281.524187 201.737697 
L 282.6173 201.645614 
L 283.710413 201.696339 
L 285.896639 201.440977 
L 286.989752 201.341312 
L 289.175978 201.572055 
L 290.269091 201.280978 
L 291.362204 200.717064 
L 292.455317 200.472389 
L 295.734656 200.357769 
L 297.920882 200.68279 
L 300.107107 201.649498 
L 301.20022 201.415054 
L 302.293333 201.788412 
L 303.386446 201.835693 
L 305.572672 197.82709 
L 306.665785 191.314908 
L 307.758898 181.965707 
L 308.852011 175.656472 
L 309.945124 167.58029 
L 311.038237 152.389165 
L 312.13135 122.111278 
L 314.317576 94.754545 
L 315.410689 84.44985 
L 316.503802 79.378444 
L 317.596915 78.501915 
L 318.690028 79.234163 
L 319.78314 82.724372 
L 320.876253 87.924778 
L 323.062479 103.110959 
L 324.155592 106.656853 
L 325.248705 118.029909 
L 326.341818 121.429843 
L 327.434931 121.213215 
L 328.528044 116.975396 
L 329.621157 116.360477 
L 330.71427 116.886559 
L 331.807383 120.918757 
L 332.900496 136.419143 
L 333.993609 149.140912 
L 335.086722 167.555961 
L 336.179835 181.748745 
L 337.272948 190.22798 
L 338.366061 196.098281 
L 339.459174 196.660225 
L 340.552287 196.681259 
L 341.645399 198.159676 
L 342.738512 199.946178 
L 343.831625 201.388943 
L 344.924738 201.693642 
L 346.017851 201.73022 
L 347.110964 201.324475 
L 348.204077 201.585298 
L 350.390303 201.387855 
L 352.576529 200.885819 
L 356.948981 200.78696 
L 358.042094 200.838589 
L 359.135207 201.031669 
L 362.414545 200.874143 
L 364.600771 200.490932 
L 365.693884 200.495273 
L 371.159449 200.028731 
L 372.252562 200.026888 
L 375.531901 200.531643 
L 376.625014 200.711494 
L 378.81124 201.482143 
L 380.997466 201.570227 
L 382.090579 201.969933 
L 383.183691 201.886324 
L 384.276804 201.130671 
L 385.369917 199.571367 
L 386.46303 197.375709 
L 387.556143 196.925798 
L 389.742369 194.356463 
L 390.835482 190.039547 
L 391.928595 188.920318 
L 393.021708 192.627777 
L 394.114821 192.458295 
L 395.207934 190.571197 
L 396.301047 191.822498 
L 397.39416 194.35527 
L 398.487273 194.548157 
L 398.487273 194.548157 
" style="fill:none;stroke:#d62728;stroke-linecap:square;stroke-width:1.5;"/>
   </g>
   <g id="patch_3">
    <path d="M 57.6 307.584 
L 57.6 41.472 
" style="fill:none;stroke:#000000;stroke-linecap:square;stroke-linejoin:miter;stroke-width:0.8;"/>
   </g>
   <g id="patch_4">
    <path d="M 414.72 307.584 
L 414.72 41.472 
" style="fill:none;stroke:#000000;stroke-linecap:square;stroke-linejoin:miter;stroke-width:0.8;"/>
   </g>
   <g id="patch_5">
    <path d="M 57.6 307.584 
L 414.72 307.584 
" style="fill:none;stroke:#000000;stroke-linecap:square;stroke-linejoin:miter;stroke-width:0.8;"/>
   </g>
   <g id="patch_6">
    <path d="M 57.6 41.472 
L 414.72 41.472 
" style="fill:none;stroke:#000000;stroke-linecap:square;stroke-linejoin:miter;stroke-width:0.8;"/>
   </g>
   <g id="text_13">
    <!-- Plot of Train Data vs MCMC Uncertainty  -->
    <defs>
     <path d="M 19.671875 64.796875 
L 19.671875 37.40625 
L 32.078125 37.40625 
Q 38.96875 37.40625 42.71875 40.96875 
Q 46.484375 44.53125 46.484375 51.125 
Q 46.484375 57.671875 42.71875 61.234375 
Q 38.96875 64.796875 32.078125 64.796875 
z
M 9.8125 72.90625 
L 32.078125 72.90625 
Q 44.34375 72.90625 50.609375 67.359375 
Q 56.890625 61.8125 56.890625 51.125 
Q 56.890625 40.328125 50.609375 34.8125 
Q 44.34375 29.296875 32.078125 29.296875 
L 19.671875 29.296875 
L 19.671875 0 
L 9.8125 0 
z
" id="DejaVuSans-50"/>
     <path d="M 9.421875 75.984375 
L 18.40625 75.984375 
L 18.40625 0 
L 9.421875 0 
z
" id="DejaVuSans-6c"/>
     <path d="M 30.609375 48.390625 
Q 23.390625 48.390625 19.1875 42.75 
Q 14.984375 37.109375 14.984375 27.296875 
Q 14.984375 17.484375 19.15625 11.84375 
Q 23.34375 6.203125 30.609375 6.203125 
Q 37.796875 6.203125 41.984375 11.859375 
Q 46.1875 17.53125 46.1875 27.296875 
Q 46.1875 37.015625 41.984375 42.703125 
Q 37.796875 48.390625 30.609375 48.390625 
z
M 30.609375 56 
Q 42.328125 56 49.015625 48.375 
Q 55.71875 40.765625 55.71875 27.296875 
Q 55.71875 13.875 49.015625 6.21875 
Q 42.328125 -1.421875 30.609375 -1.421875 
Q 18.84375 -1.421875 12.171875 6.21875 
Q 5.515625 13.875 5.515625 27.296875 
Q 5.515625 40.765625 12.171875 48.375 
Q 18.84375 56 30.609375 56 
z
" id="DejaVuSans-6f"/>
     <path d="M 18.3125 70.21875 
L 18.3125 54.6875 
L 36.8125 54.6875 
L 36.8125 47.703125 
L 18.3125 47.703125 
L 18.3125 18.015625 
Q 18.3125 11.328125 20.140625 9.421875 
Q 21.96875 7.515625 27.59375 7.515625 
L 36.8125 7.515625 
L 36.8125 0 
L 27.59375 0 
Q 17.1875 0 13.234375 3.875 
Q 9.28125 7.765625 9.28125 18.015625 
L 9.28125 47.703125 
L 2.6875 47.703125 
L 2.6875 54.6875 
L 9.28125 54.6875 
L 9.28125 70.21875 
z
" id="DejaVuSans-74"/>
     <path id="DejaVuSans-20"/>
     <path d="M 37.109375 75.984375 
L 37.109375 68.5 
L 28.515625 68.5 
Q 23.6875 68.5 21.796875 66.546875 
Q 19.921875 64.59375 19.921875 59.515625 
L 19.921875 54.6875 
L 34.71875 54.6875 
L 34.71875 47.703125 
L 19.921875 47.703125 
L 19.921875 0 
L 10.890625 0 
L 10.890625 47.703125 
L 2.296875 47.703125 
L 2.296875 54.6875 
L 10.890625 54.6875 
L 10.890625 58.5 
Q 10.890625 67.625 15.140625 71.796875 
Q 19.390625 75.984375 28.609375 75.984375 
z
" id="DejaVuSans-66"/>
     <path d="M -0.296875 72.90625 
L 61.375 72.90625 
L 61.375 64.59375 
L 35.5 64.59375 
L 35.5 0 
L 25.59375 0 
L 25.59375 64.59375 
L -0.296875 64.59375 
z
" id="DejaVuSans-54"/>
     <path d="M 41.109375 46.296875 
Q 39.59375 47.171875 37.8125 47.578125 
Q 36.03125 48 33.890625 48 
Q 26.265625 48 22.1875 43.046875 
Q 18.109375 38.09375 18.109375 28.8125 
L 18.109375 0 
L 9.078125 0 
L 9.078125 54.6875 
L 18.109375 54.6875 
L 18.109375 46.1875 
Q 20.953125 51.171875 25.484375 53.578125 
Q 30.03125 56 36.53125 56 
Q 37.453125 56 38.578125 55.875 
Q 39.703125 55.765625 41.0625 55.515625 
z
" id="DejaVuSans-72"/>
     <path d="M 34.28125 27.484375 
Q 23.390625 27.484375 19.1875 25 
Q 14.984375 22.515625 14.984375 16.5 
Q 14.984375 11.71875 18.140625 8.90625 
Q 21.296875 6.109375 26.703125 6.109375 
Q 34.1875 6.109375 38.703125 11.40625 
Q 43.21875 16.703125 43.21875 25.484375 
L 43.21875 27.484375 
z
M 52.203125 31.203125 
L 52.203125 0 
L 43.21875 0 
L 43.21875 8.296875 
Q 40.140625 3.328125 35.546875 0.953125 
Q 30.953125 -1.421875 24.3125 -1.421875 
Q 15.921875 -1.421875 10.953125 3.296875 
Q 6 8.015625 6 15.921875 
Q 6 25.140625 12.171875 29.828125 
Q 18.359375 34.515625 30.609375 34.515625 
L 43.21875 34.515625 
L 43.21875 35.40625 
Q 43.21875 41.609375 39.140625 45 
Q 35.0625 48.390625 27.6875 48.390625 
Q 23 48.390625 18.546875 47.265625 
Q 14.109375 46.140625 10.015625 43.890625 
L 10.015625 52.203125 
Q 14.9375 54.109375 19.578125 55.046875 
Q 24.21875 56 28.609375 56 
Q 40.484375 56 46.34375 49.84375 
Q 52.203125 43.703125 52.203125 31.203125 
z
" id="DejaVuSans-61"/>
     <path d="M 9.421875 54.6875 
L 18.40625 54.6875 
L 18.40625 0 
L 9.421875 0 
z
M 9.421875 75.984375 
L 18.40625 75.984375 
L 18.40625 64.59375 
L 9.421875 64.59375 
z
" id="DejaVuSans-69"/>
     <path d="M 54.890625 33.015625 
L 54.890625 0 
L 45.90625 0 
L 45.90625 32.71875 
Q 45.90625 40.484375 42.875 44.328125 
Q 39.84375 48.1875 33.796875 48.1875 
Q 26.515625 48.1875 22.3125 43.546875 
Q 18.109375 38.921875 18.109375 30.90625 
L 18.109375 0 
L 9.078125 0 
L 9.078125 54.6875 
L 18.109375 54.6875 
L 18.109375 46.1875 
Q 21.34375 51.125 25.703125 53.5625 
Q 30.078125 56 35.796875 56 
Q 45.21875 56 50.046875 50.171875 
Q 54.890625 44.34375 54.890625 33.015625 
z
" id="DejaVuSans-6e"/>
     <path d="M 19.671875 64.796875 
L 19.671875 8.109375 
L 31.59375 8.109375 
Q 46.6875 8.109375 53.6875 14.9375 
Q 60.6875 21.78125 60.6875 36.53125 
Q 60.6875 51.171875 53.6875 57.984375 
Q 46.6875 64.796875 31.59375 64.796875 
z
M 9.8125 72.90625 
L 30.078125 72.90625 
Q 51.265625 72.90625 61.171875 64.09375 
Q 71.09375 55.28125 71.09375 36.53125 
Q 71.09375 17.671875 61.125 8.828125 
Q 51.171875 0 30.078125 0 
L 9.8125 0 
z
" id="DejaVuSans-44"/>
     <path d="M 2.984375 54.6875 
L 12.5 54.6875 
L 29.59375 8.796875 
L 46.6875 54.6875 
L 56.203125 54.6875 
L 35.6875 0 
L 23.484375 0 
z
" id="DejaVuSans-76"/>
     <path d="M 44.28125 53.078125 
L 44.28125 44.578125 
Q 40.484375 46.53125 36.375 47.5 
Q 32.28125 48.484375 27.875 48.484375 
Q 21.1875 48.484375 17.84375 46.4375 
Q 14.5 44.390625 14.5 40.28125 
Q 14.5 37.15625 16.890625 35.375 
Q 19.28125 33.59375 26.515625 31.984375 
L 29.59375 31.296875 
Q 39.15625 29.25 43.1875 25.515625 
Q 47.21875 21.78125 47.21875 15.09375 
Q 47.21875 7.46875 41.1875 3.015625 
Q 35.15625 -1.421875 24.609375 -1.421875 
Q 20.21875 -1.421875 15.453125 -0.5625 
Q 10.6875 0.296875 5.421875 2 
L 5.421875 11.28125 
Q 10.40625 8.6875 15.234375 7.390625 
Q 20.0625 6.109375 24.8125 6.109375 
Q 31.15625 6.109375 34.5625 8.28125 
Q 37.984375 10.453125 37.984375 14.40625 
Q 37.984375 18.0625 35.515625 20.015625 
Q 33.0625 21.96875 24.703125 23.78125 
L 21.578125 24.515625 
Q 13.234375 26.265625 9.515625 29.90625 
Q 5.8125 33.546875 5.8125 39.890625 
Q 5.8125 47.609375 11.28125 51.796875 
Q 16.75 56 26.8125 56 
Q 31.78125 56 36.171875 55.265625 
Q 40.578125 54.546875 44.28125 53.078125 
z
" id="DejaVuSans-73"/>
     <path d="M 9.8125 72.90625 
L 24.515625 72.90625 
L 43.109375 23.296875 
L 61.8125 72.90625 
L 76.515625 72.90625 
L 76.515625 0 
L 66.890625 0 
L 66.890625 64.015625 
L 48.09375 14.015625 
L 38.1875 14.015625 
L 19.390625 64.015625 
L 19.390625 0 
L 9.8125 0 
z
" id="DejaVuSans-4d"/>
     <path d="M 64.40625 67.28125 
L 64.40625 56.890625 
Q 59.421875 61.53125 53.78125 63.8125 
Q 48.140625 66.109375 41.796875 66.109375 
Q 29.296875 66.109375 22.65625 58.46875 
Q 16.015625 50.828125 16.015625 36.375 
Q 16.015625 21.96875 22.65625 14.328125 
Q 29.296875 6.6875 41.796875 6.6875 
Q 48.140625 6.6875 53.78125 8.984375 
Q 59.421875 11.28125 64.40625 15.921875 
L 64.40625 5.609375 
Q 59.234375 2.09375 53.4375 0.328125 
Q 47.65625 -1.421875 41.21875 -1.421875 
Q 24.65625 -1.421875 15.125 8.703125 
Q 5.609375 18.84375 5.609375 36.375 
Q 5.609375 53.953125 15.125 64.078125 
Q 24.65625 74.21875 41.21875 74.21875 
Q 47.75 74.21875 53.53125 72.484375 
Q 59.328125 70.75 64.40625 67.28125 
z
" id="DejaVuSans-43"/>
     <path d="M 8.6875 72.90625 
L 18.609375 72.90625 
L 18.609375 28.609375 
Q 18.609375 16.890625 22.84375 11.734375 
Q 27.09375 6.59375 36.625 6.59375 
Q 46.09375 6.59375 50.34375 11.734375 
Q 54.59375 16.890625 54.59375 28.609375 
L 54.59375 72.90625 
L 64.5 72.90625 
L 64.5 27.390625 
Q 64.5 13.140625 57.4375 5.859375 
Q 50.390625 -1.421875 36.625 -1.421875 
Q 22.796875 -1.421875 15.734375 5.859375 
Q 8.6875 13.140625 8.6875 27.390625 
z
" id="DejaVuSans-55"/>
     <path d="M 48.78125 52.59375 
L 48.78125 44.1875 
Q 44.96875 46.296875 41.140625 47.34375 
Q 37.3125 48.390625 33.40625 48.390625 
Q 24.65625 48.390625 19.8125 42.84375 
Q 14.984375 37.3125 14.984375 27.296875 
Q 14.984375 17.28125 19.8125 11.734375 
Q 24.65625 6.203125 33.40625 6.203125 
Q 37.3125 6.203125 41.140625 7.25 
Q 44.96875 8.296875 48.78125 10.40625 
L 48.78125 2.09375 
Q 45.015625 0.34375 40.984375 -0.53125 
Q 36.96875 -1.421875 32.421875 -1.421875 
Q 20.0625 -1.421875 12.78125 6.34375 
Q 5.515625 14.109375 5.515625 27.296875 
Q 5.515625 40.671875 12.859375 48.328125 
Q 20.21875 56 33.015625 56 
Q 37.15625 56 41.109375 55.140625 
Q 45.0625 54.296875 48.78125 52.59375 
z
" id="DejaVuSans-63"/>
     <path d="M 56.203125 29.59375 
L 56.203125 25.203125 
L 14.890625 25.203125 
Q 15.484375 15.921875 20.484375 11.0625 
Q 25.484375 6.203125 34.421875 6.203125 
Q 39.59375 6.203125 44.453125 7.46875 
Q 49.3125 8.734375 54.109375 11.28125 
L 54.109375 2.78125 
Q 49.265625 0.734375 44.1875 -0.34375 
Q 39.109375 -1.421875 33.890625 -1.421875 
Q 20.796875 -1.421875 13.15625 6.1875 
Q 5.515625 13.8125 5.515625 26.8125 
Q 5.515625 40.234375 12.765625 48.109375 
Q 20.015625 56 32.328125 56 
Q 43.359375 56 49.78125 48.890625 
Q 56.203125 41.796875 56.203125 29.59375 
z
M 47.21875 32.234375 
Q 47.125 39.59375 43.09375 43.984375 
Q 39.0625 48.390625 32.421875 48.390625 
Q 24.90625 48.390625 20.390625 44.140625 
Q 15.875 39.890625 15.1875 32.171875 
z
" id="DejaVuSans-65"/>
     <path d="M 32.171875 -5.078125 
Q 28.375 -14.84375 24.75 -17.8125 
Q 21.140625 -20.796875 15.09375 -20.796875 
L 7.90625 -20.796875 
L 7.90625 -13.28125 
L 13.1875 -13.28125 
Q 16.890625 -13.28125 18.9375 -11.515625 
Q 21 -9.765625 23.484375 -3.21875 
L 25.09375 0.875 
L 2.984375 54.6875 
L 12.5 54.6875 
L 29.59375 11.921875 
L 46.6875 54.6875 
L 56.203125 54.6875 
z
" id="DejaVuSans-79"/>
    </defs>
    <g transform="translate(115.666875 35.472)scale(0.12 -0.12)">
     <use xlink:href="#DejaVuSans-50"/>
     <use x="60.302734" xlink:href="#DejaVuSans-6c"/>
     <use x="88.085938" xlink:href="#DejaVuSans-6f"/>
     <use x="149.267578" xlink:href="#DejaVuSans-74"/>
     <use x="188.476562" xlink:href="#DejaVuSans-20"/>
     <use x="220.263672" xlink:href="#DejaVuSans-6f"/>
     <use x="281.445312" xlink:href="#DejaVuSans-66"/>
     <use x="316.650391" xlink:href="#DejaVuSans-20"/>
     <use x="348.4375" xlink:href="#DejaVuSans-54"/>
     <use x="409.302734" xlink:href="#DejaVuSans-72"/>
     <use x="450.416016" xlink:href="#DejaVuSans-61"/>
     <use x="511.695312" xlink:href="#DejaVuSans-69"/>
     <use x="539.478516" xlink:href="#DejaVuSans-6e"/>
     <use x="602.857422" xlink:href="#DejaVuSans-20"/>
     <use x="634.644531" xlink:href="#DejaVuSans-44"/>
     <use x="711.646484" xlink:href="#DejaVuSans-61"/>
     <use x="772.925781" xlink:href="#DejaVuSans-74"/>
     <use x="812.134766" xlink:href="#DejaVuSans-61"/>
     <use x="873.414062" xlink:href="#DejaVuSans-20"/>
     <use x="905.201172" xlink:href="#DejaVuSans-76"/>
     <use x="964.380859" xlink:href="#DejaVuSans-73"/>
     <use x="1016.480469" xlink:href="#DejaVuSans-20"/>
     <use x="1048.267578" xlink:href="#DejaVuSans-4d"/>
     <use x="1134.546875" xlink:href="#DejaVuSans-43"/>
     <use x="1204.371094" xlink:href="#DejaVuSans-4d"/>
     <use x="1290.650391" xlink:href="#DejaVuSans-43"/>
     <use x="1360.474609" xlink:href="#DejaVuSans-20"/>
     <use x="1392.261719" xlink:href="#DejaVuSans-55"/>
     <use x="1465.455078" xlink:href="#DejaVuSans-6e"/>
     <use x="1528.833984" xlink:href="#DejaVuSans-63"/>
     <use x="1583.814453" xlink:href="#DejaVuSans-65"/>
     <use x="1645.337891" xlink:href="#DejaVuSans-72"/>
     <use x="1686.451172" xlink:href="#DejaVuSans-74"/>
     <use x="1725.660156" xlink:href="#DejaVuSans-61"/>
     <use x="1786.939453" xlink:href="#DejaVuSans-69"/>
     <use x="1814.722656" xlink:href="#DejaVuSans-6e"/>
     <use x="1878.101562" xlink:href="#DejaVuSans-74"/>
     <use x="1917.310547" xlink:href="#DejaVuSans-79"/>
     <use x="1976.490234" xlink:href="#DejaVuSans-20"/>
    </g>
   </g>
   <g id="legend_1">
    <g id="patch_7">
     <path d="M 277.843437 108.1845 
L 407.72 108.1845 
Q 409.72 108.1845 409.72 106.1845 
L 409.72 48.472 
Q 409.72 46.472 407.72 46.472 
L 277.843437 46.472 
Q 275.843437 46.472 275.843437 48.472 
L 275.843437 106.1845 
Q 275.843437 108.1845 277.843437 108.1845 
z
" style="fill:#ffffff;opacity:0.8;stroke:#cccccc;stroke-linejoin:miter;"/>
    </g>
    <g id="line2d_17">
     <path d="M 279.843437 54.570438 
L 299.843437 54.570438 
" style="fill:none;stroke:#1f77b4;stroke-linecap:square;stroke-width:1.5;"/>
    </g>
    <g id="line2d_18"/>
    <g id="text_14">
     <!-- actual -->
     <defs>
      <path d="M 8.5 21.578125 
L 8.5 54.6875 
L 17.484375 54.6875 
L 17.484375 21.921875 
Q 17.484375 14.15625 20.5 10.265625 
Q 23.53125 6.390625 29.59375 6.390625 
Q 36.859375 6.390625 41.078125 11.03125 
Q 45.3125 15.671875 45.3125 23.6875 
L 45.3125 54.6875 
L 54.296875 54.6875 
L 54.296875 0 
L 45.3125 0 
L 45.3125 8.40625 
Q 42.046875 3.421875 37.71875 1 
Q 33.40625 -1.421875 27.6875 -1.421875 
Q 18.265625 -1.421875 13.375 4.4375 
Q 8.5 10.296875 8.5 21.578125 
z
M 31.109375 56 
z
" id="DejaVuSans-75"/>
     </defs>
     <g transform="translate(307.843437 58.070438)scale(0.1 -0.1)">
      <use xlink:href="#DejaVuSans-61"/>
      <use x="61.279297" xlink:href="#DejaVuSans-63"/>
      <use x="116.259766" xlink:href="#DejaVuSans-74"/>
      <use x="155.46875" xlink:href="#DejaVuSans-75"/>
      <use x="218.847656" xlink:href="#DejaVuSans-61"/>
      <use x="280.126953" xlink:href="#DejaVuSans-6c"/>
     </g>
    </g>
    <g id="line2d_19">
     <path d="M 279.843437 69.248563 
L 299.843437 69.248563 
" style="fill:none;stroke:#ff7f0e;stroke-linecap:square;stroke-width:1.5;"/>
    </g>
    <g id="line2d_20"/>
    <g id="text_15">
     <!-- pred. (mean) -->
     <defs>
      <path d="M 18.109375 8.203125 
L 18.109375 -20.796875 
L 9.078125 -20.796875 
L 9.078125 54.6875 
L 18.109375 54.6875 
L 18.109375 46.390625 
Q 20.953125 51.265625 25.265625 53.625 
Q 29.59375 56 35.59375 56 
Q 45.5625 56 51.78125 48.09375 
Q 58.015625 40.1875 58.015625 27.296875 
Q 58.015625 14.40625 51.78125 6.484375 
Q 45.5625 -1.421875 35.59375 -1.421875 
Q 29.59375 -1.421875 25.265625 0.953125 
Q 20.953125 3.328125 18.109375 8.203125 
z
M 48.6875 27.296875 
Q 48.6875 37.203125 44.609375 42.84375 
Q 40.53125 48.484375 33.40625 48.484375 
Q 26.265625 48.484375 22.1875 42.84375 
Q 18.109375 37.203125 18.109375 27.296875 
Q 18.109375 17.390625 22.1875 11.75 
Q 26.265625 6.109375 33.40625 6.109375 
Q 40.53125 6.109375 44.609375 11.75 
Q 48.6875 17.390625 48.6875 27.296875 
z
" id="DejaVuSans-70"/>
      <path d="M 45.40625 46.390625 
L 45.40625 75.984375 
L 54.390625 75.984375 
L 54.390625 0 
L 45.40625 0 
L 45.40625 8.203125 
Q 42.578125 3.328125 38.25 0.953125 
Q 33.9375 -1.421875 27.875 -1.421875 
Q 17.96875 -1.421875 11.734375 6.484375 
Q 5.515625 14.40625 5.515625 27.296875 
Q 5.515625 40.1875 11.734375 48.09375 
Q 17.96875 56 27.875 56 
Q 33.9375 56 38.25 53.625 
Q 42.578125 51.265625 45.40625 46.390625 
z
M 14.796875 27.296875 
Q 14.796875 17.390625 18.875 11.75 
Q 22.953125 6.109375 30.078125 6.109375 
Q 37.203125 6.109375 41.296875 11.75 
Q 45.40625 17.390625 45.40625 27.296875 
Q 45.40625 37.203125 41.296875 42.84375 
Q 37.203125 48.484375 30.078125 48.484375 
Q 22.953125 48.484375 18.875 42.84375 
Q 14.796875 37.203125 14.796875 27.296875 
z
" id="DejaVuSans-64"/>
      <path d="M 31 75.875 
Q 24.46875 64.65625 21.28125 53.65625 
Q 18.109375 42.671875 18.109375 31.390625 
Q 18.109375 20.125 21.3125 9.0625 
Q 24.515625 -2 31 -13.1875 
L 23.1875 -13.1875 
Q 15.875 -1.703125 12.234375 9.375 
Q 8.59375 20.453125 8.59375 31.390625 
Q 8.59375 42.28125 12.203125 53.3125 
Q 15.828125 64.359375 23.1875 75.875 
z
" id="DejaVuSans-28"/>
      <path d="M 52 44.1875 
Q 55.375 50.25 60.0625 53.125 
Q 64.75 56 71.09375 56 
Q 79.640625 56 84.28125 50.015625 
Q 88.921875 44.046875 88.921875 33.015625 
L 88.921875 0 
L 79.890625 0 
L 79.890625 32.71875 
Q 79.890625 40.578125 77.09375 44.375 
Q 74.3125 48.1875 68.609375 48.1875 
Q 61.625 48.1875 57.5625 43.546875 
Q 53.515625 38.921875 53.515625 30.90625 
L 53.515625 0 
L 44.484375 0 
L 44.484375 32.71875 
Q 44.484375 40.625 41.703125 44.40625 
Q 38.921875 48.1875 33.109375 48.1875 
Q 26.21875 48.1875 22.15625 43.53125 
Q 18.109375 38.875 18.109375 30.90625 
L 18.109375 0 
L 9.078125 0 
L 9.078125 54.6875 
L 18.109375 54.6875 
L 18.109375 46.1875 
Q 21.1875 51.21875 25.484375 53.609375 
Q 29.78125 56 35.6875 56 
Q 41.65625 56 45.828125 52.96875 
Q 50 49.953125 52 44.1875 
z
" id="DejaVuSans-6d"/>
      <path d="M 8.015625 75.875 
L 15.828125 75.875 
Q 23.140625 64.359375 26.78125 53.3125 
Q 30.421875 42.28125 30.421875 31.390625 
Q 30.421875 20.453125 26.78125 9.375 
Q 23.140625 -1.703125 15.828125 -13.1875 
L 8.015625 -13.1875 
Q 14.5 -2 17.703125 9.0625 
Q 20.90625 20.125 20.90625 31.390625 
Q 20.90625 42.671875 17.703125 53.65625 
Q 14.5 64.65625 8.015625 75.875 
z
" id="DejaVuSans-29"/>
     </defs>
     <g transform="translate(307.843437 72.748563)scale(0.1 -0.1)">
      <use xlink:href="#DejaVuSans-70"/>
      <use x="63.476562" xlink:href="#DejaVuSans-72"/>
      <use x="104.558594" xlink:href="#DejaVuSans-65"/>
      <use x="166.082031" xlink:href="#DejaVuSans-64"/>
      <use x="229.558594" xlink:href="#DejaVuSans-2e"/>
      <use x="261.345703" xlink:href="#DejaVuSans-20"/>
      <use x="293.132812" xlink:href="#DejaVuSans-28"/>
      <use x="332.146484" xlink:href="#DejaVuSans-6d"/>
      <use x="429.558594" xlink:href="#DejaVuSans-65"/>
      <use x="491.082031" xlink:href="#DejaVuSans-61"/>
      <use x="552.361328" xlink:href="#DejaVuSans-6e"/>
      <use x="615.740234" xlink:href="#DejaVuSans-29"/>
     </g>
    </g>
    <g id="line2d_21">
     <path d="M 279.843437 83.926688 
L 299.843437 83.926688 
" style="fill:none;stroke:#2ca02c;stroke-linecap:square;stroke-width:1.5;"/>
    </g>
    <g id="line2d_22"/>
    <g id="text_16">
     <!-- pred.(5th percen.) -->
     <defs>
      <path d="M 10.796875 72.90625 
L 49.515625 72.90625 
L 49.515625 64.59375 
L 19.828125 64.59375 
L 19.828125 46.734375 
Q 21.96875 47.46875 24.109375 47.828125 
Q 26.265625 48.1875 28.421875 48.1875 
Q 40.625 48.1875 47.75 41.5 
Q 54.890625 34.8125 54.890625 23.390625 
Q 54.890625 11.625 47.5625 5.09375 
Q 40.234375 -1.421875 26.90625 -1.421875 
Q 22.3125 -1.421875 17.546875 -0.640625 
Q 12.796875 0.140625 7.71875 1.703125 
L 7.71875 11.625 
Q 12.109375 9.234375 16.796875 8.0625 
Q 21.484375 6.890625 26.703125 6.890625 
Q 35.15625 6.890625 40.078125 11.328125 
Q 45.015625 15.765625 45.015625 23.390625 
Q 45.015625 31 40.078125 35.4375 
Q 35.15625 39.890625 26.703125 39.890625 
Q 22.75 39.890625 18.8125 39.015625 
Q 14.890625 38.140625 10.796875 36.28125 
z
" id="DejaVuSans-35"/>
      <path d="M 54.890625 33.015625 
L 54.890625 0 
L 45.90625 0 
L 45.90625 32.71875 
Q 45.90625 40.484375 42.875 44.328125 
Q 39.84375 48.1875 33.796875 48.1875 
Q 26.515625 48.1875 22.3125 43.546875 
Q 18.109375 38.921875 18.109375 30.90625 
L 18.109375 0 
L 9.078125 0 
L 9.078125 75.984375 
L 18.109375 75.984375 
L 18.109375 46.1875 
Q 21.34375 51.125 25.703125 53.5625 
Q 30.078125 56 35.796875 56 
Q 45.21875 56 50.046875 50.171875 
Q 54.890625 44.34375 54.890625 33.015625 
z
" id="DejaVuSans-68"/>
     </defs>
     <g transform="translate(307.843437 87.426688)scale(0.1 -0.1)">
      <use xlink:href="#DejaVuSans-70"/>
      <use x="63.476562" xlink:href="#DejaVuSans-72"/>
      <use x="104.558594" xlink:href="#DejaVuSans-65"/>
      <use x="166.082031" xlink:href="#DejaVuSans-64"/>
      <use x="229.558594" xlink:href="#DejaVuSans-2e"/>
      <use x="261.345703" xlink:href="#DejaVuSans-28"/>
      <use x="300.359375" xlink:href="#DejaVuSans-35"/>
      <use x="363.982422" xlink:href="#DejaVuSans-74"/>
      <use x="403.191406" xlink:href="#DejaVuSans-68"/>
      <use x="466.570312" xlink:href="#DejaVuSans-20"/>
      <use x="498.357422" xlink:href="#DejaVuSans-70"/>
      <use x="561.833984" xlink:href="#DejaVuSans-65"/>
      <use x="623.357422" xlink:href="#DejaVuSans-72"/>
      <use x="664.439453" xlink:href="#DejaVuSans-63"/>
      <use x="719.419922" xlink:href="#DejaVuSans-65"/>
      <use x="780.943359" xlink:href="#DejaVuSans-6e"/>
      <use x="844.322266" xlink:href="#DejaVuSans-2e"/>
      <use x="876.109375" xlink:href="#DejaVuSans-29"/>
     </g>
    </g>
    <g id="line2d_23">
     <path d="M 279.843437 98.604813 
L 299.843437 98.604813 
" style="fill:none;stroke:#d62728;stroke-linecap:square;stroke-width:1.5;"/>
    </g>
    <g id="line2d_24"/>
    <g id="text_17">
     <!-- pred.(95th percen.) -->
     <defs>
      <path d="M 10.984375 1.515625 
L 10.984375 10.5 
Q 14.703125 8.734375 18.5 7.8125 
Q 22.3125 6.890625 25.984375 6.890625 
Q 35.75 6.890625 40.890625 13.453125 
Q 46.046875 20.015625 46.78125 33.40625 
Q 43.953125 29.203125 39.59375 26.953125 
Q 35.25 24.703125 29.984375 24.703125 
Q 19.046875 24.703125 12.671875 31.3125 
Q 6.296875 37.9375 6.296875 49.421875 
Q 6.296875 60.640625 12.9375 67.421875 
Q 19.578125 74.21875 30.609375 74.21875 
Q 43.265625 74.21875 49.921875 64.515625 
Q 56.59375 54.828125 56.59375 36.375 
Q 56.59375 19.140625 48.40625 8.859375 
Q 40.234375 -1.421875 26.421875 -1.421875 
Q 22.703125 -1.421875 18.890625 -0.6875 
Q 15.09375 0.046875 10.984375 1.515625 
z
M 30.609375 32.421875 
Q 37.25 32.421875 41.125 36.953125 
Q 45.015625 41.5 45.015625 49.421875 
Q 45.015625 57.28125 41.125 61.84375 
Q 37.25 66.40625 30.609375 66.40625 
Q 23.96875 66.40625 20.09375 61.84375 
Q 16.21875 57.28125 16.21875 49.421875 
Q 16.21875 41.5 20.09375 36.953125 
Q 23.96875 32.421875 30.609375 32.421875 
z
" id="DejaVuSans-39"/>
     </defs>
     <g transform="translate(307.843437 102.104813)scale(0.1 -0.1)">
      <use xlink:href="#DejaVuSans-70"/>
      <use x="63.476562" xlink:href="#DejaVuSans-72"/>
      <use x="104.558594" xlink:href="#DejaVuSans-65"/>
      <use x="166.082031" xlink:href="#DejaVuSans-64"/>
      <use x="229.558594" xlink:href="#DejaVuSans-2e"/>
      <use x="261.345703" xlink:href="#DejaVuSans-28"/>
      <use x="300.359375" xlink:href="#DejaVuSans-39"/>
      <use x="363.982422" xlink:href="#DejaVuSans-35"/>
      <use x="427.605469" xlink:href="#DejaVuSans-74"/>
      <use x="466.814453" xlink:href="#DejaVuSans-68"/>
      <use x="530.193359" xlink:href="#DejaVuSans-20"/>
      <use x="561.980469" xlink:href="#DejaVuSans-70"/>
      <use x="625.457031" xlink:href="#DejaVuSans-65"/>
      <use x="686.980469" xlink:href="#DejaVuSans-72"/>
      <use x="728.0625" xlink:href="#DejaVuSans-63"/>
      <use x="783.042969" xlink:href="#DejaVuSans-65"/>
      <use x="844.566406" xlink:href="#DejaVuSans-6e"/>
      <use x="907.945312" xlink:href="#DejaVuSans-2e"/>
      <use x="939.732422" xlink:href="#DejaVuSans-29"/>
     </g>
    </g>
   </g>
  </g>
 </g>
 <defs>
  <clipPath id="p0fb8ec0ce0">
   <rect height="266.112" width="357.12" x="57.6" y="41.472"/>
  </clipPath>
 </defs>
</svg>
